<?xml version="1.0" encoding="utf-8" standalone="no"?>
<!DOCTYPE svg PUBLIC "-//W3C//DTD SVG 1.1//EN"
  "http://www.w3.org/Graphics/SVG/1.1/DTD/svg11.dtd">
<svg xmlns:xlink="http://www.w3.org/1999/xlink" width="460.8pt" height="345.6pt" viewBox="0 0 460.8 345.6" xmlns="http://www.w3.org/2000/svg" version="1.1">
 <metadata>
  <rdf:RDF xmlns:dc="http://purl.org/dc/elements/1.1/" xmlns:cc="http://creativecommons.org/ns#" xmlns:rdf="http://www.w3.org/1999/02/22-rdf-syntax-ns#">
   <cc:Work>
    <dc:type rdf:resource="http://purl.org/dc/dcmitype/StillImage"/>
    <dc:date>2024-03-26T14:57:39.750037</dc:date>
    <dc:format>image/svg+xml</dc:format>
    <dc:creator>
     <cc:Agent>
      <dc:title>Matplotlib v3.8.1, https://matplotlib.org/</dc:title>
     </cc:Agent>
    </dc:creator>
   </cc:Work>
  </rdf:RDF>
 </metadata>
 <defs>
  <style type="text/css">*{stroke-linejoin: round; stroke-linecap: butt}</style>
 </defs>
 <g id="figure_1">
  <g id="patch_1">
   <path d="M 0 345.6 
L 460.8 345.6 
L 460.8 0 
L 0 0 
z
" style="fill: #ffffff"/>
  </g>
  <g id="axes_1">
   <g id="patch_2">
    <path d="M 57.6 307.584 
L 414.72 307.584 
L 414.72 41.472 
L 57.6 41.472 
z
" style="fill: #ffffff"/>
   </g>
   <g id="matplotlib.axis_1">
    <g id="xtick_1">
     <g id="line2d_1">
      <path d="M 57.6 307.584 
L 57.6 41.472 
" clip-path="url(#p97ed24ed7f)" style="fill: none; stroke: #b0b0b0; stroke-width: 0.8; stroke-linecap: square"/>
     </g>
     <g id="line2d_2">
      <defs>
       <path id="m5903523233" d="M 0 0 
L 0 3.5 
" style="stroke: #000000; stroke-width: 0.8"/>
      </defs>
      <g>
       <use xlink:href="#m5903523233" x="57.6" y="307.584" style="stroke: #000000; stroke-width: 0.8"/>
      </g>
     </g>
     <g id="text_1">
      <!-- 0 -->
      <g transform="translate(54.41875 322.182437) scale(0.1 -0.1)">
       <defs>
        <path id="DejaVuSans-30" d="M 2034 4250 
Q 1547 4250 1301 3770 
Q 1056 3291 1056 2328 
Q 1056 1369 1301 889 
Q 1547 409 2034 409 
Q 2525 409 2770 889 
Q 3016 1369 3016 2328 
Q 3016 3291 2770 3770 
Q 2525 4250 2034 4250 
z
M 2034 4750 
Q 2819 4750 3233 4129 
Q 3647 3509 3647 2328 
Q 3647 1150 3233 529 
Q 2819 -91 2034 -91 
Q 1250 -91 836 529 
Q 422 1150 422 2328 
Q 422 3509 836 4129 
Q 1250 4750 2034 4750 
z
" transform="scale(0.015625)"/>
       </defs>
       <use xlink:href="#DejaVuSans-30"/>
      </g>
     </g>
    </g>
    <g id="xtick_2">
     <g id="line2d_3">
      <path d="M 114.475299 307.584 
L 114.475299 41.472 
" clip-path="url(#p97ed24ed7f)" style="fill: none; stroke: #b0b0b0; stroke-width: 0.8; stroke-linecap: square"/>
     </g>
     <g id="line2d_4">
      <g>
       <use xlink:href="#m5903523233" x="114.475299" y="307.584" style="stroke: #000000; stroke-width: 0.8"/>
      </g>
     </g>
     <g id="text_2">
      <!-- 50 -->
      <g transform="translate(108.112799 322.182437) scale(0.1 -0.1)">
       <defs>
        <path id="DejaVuSans-35" d="M 691 4666 
L 3169 4666 
L 3169 4134 
L 1269 4134 
L 1269 2991 
Q 1406 3038 1543 3061 
Q 1681 3084 1819 3084 
Q 2600 3084 3056 2656 
Q 3513 2228 3513 1497 
Q 3513 744 3044 326 
Q 2575 -91 1722 -91 
Q 1428 -91 1123 -41 
Q 819 9 494 109 
L 494 744 
Q 775 591 1075 516 
Q 1375 441 1709 441 
Q 2250 441 2565 725 
Q 2881 1009 2881 1497 
Q 2881 1984 2565 2268 
Q 2250 2553 1709 2553 
Q 1456 2553 1204 2497 
Q 953 2441 691 2322 
L 691 4666 
z
" transform="scale(0.015625)"/>
       </defs>
       <use xlink:href="#DejaVuSans-35"/>
       <use xlink:href="#DejaVuSans-30" x="63.623047"/>
      </g>
     </g>
    </g>
    <g id="xtick_3">
     <g id="line2d_5">
      <path d="M 171.350597 307.584 
L 171.350597 41.472 
" clip-path="url(#p97ed24ed7f)" style="fill: none; stroke: #b0b0b0; stroke-width: 0.8; stroke-linecap: square"/>
     </g>
     <g id="line2d_6">
      <g>
       <use xlink:href="#m5903523233" x="171.350597" y="307.584" style="stroke: #000000; stroke-width: 0.8"/>
      </g>
     </g>
     <g id="text_3">
      <!-- 100 -->
      <g transform="translate(161.806847 322.182437) scale(0.1 -0.1)">
       <defs>
        <path id="DejaVuSans-31" d="M 794 531 
L 1825 531 
L 1825 4091 
L 703 3866 
L 703 4441 
L 1819 4666 
L 2450 4666 
L 2450 531 
L 3481 531 
L 3481 0 
L 794 0 
L 794 531 
z
" transform="scale(0.015625)"/>
       </defs>
       <use xlink:href="#DejaVuSans-31"/>
       <use xlink:href="#DejaVuSans-30" x="63.623047"/>
       <use xlink:href="#DejaVuSans-30" x="127.246094"/>
      </g>
     </g>
    </g>
    <g id="xtick_4">
     <g id="line2d_7">
      <path d="M 228.225896 307.584 
L 228.225896 41.472 
" clip-path="url(#p97ed24ed7f)" style="fill: none; stroke: #b0b0b0; stroke-width: 0.8; stroke-linecap: square"/>
     </g>
     <g id="line2d_8">
      <g>
       <use xlink:href="#m5903523233" x="228.225896" y="307.584" style="stroke: #000000; stroke-width: 0.8"/>
      </g>
     </g>
     <g id="text_4">
      <!-- 150 -->
      <g transform="translate(218.682146 322.182437) scale(0.1 -0.1)">
       <use xlink:href="#DejaVuSans-31"/>
       <use xlink:href="#DejaVuSans-35" x="63.623047"/>
       <use xlink:href="#DejaVuSans-30" x="127.246094"/>
      </g>
     </g>
    </g>
    <g id="xtick_5">
     <g id="line2d_9">
      <path d="M 285.101194 307.584 
L 285.101194 41.472 
" clip-path="url(#p97ed24ed7f)" style="fill: none; stroke: #b0b0b0; stroke-width: 0.8; stroke-linecap: square"/>
     </g>
     <g id="line2d_10">
      <g>
       <use xlink:href="#m5903523233" x="285.101194" y="307.584" style="stroke: #000000; stroke-width: 0.8"/>
      </g>
     </g>
     <g id="text_5">
      <!-- 200 -->
      <g transform="translate(275.557444 322.182437) scale(0.1 -0.1)">
       <defs>
        <path id="DejaVuSans-32" d="M 1228 531 
L 3431 531 
L 3431 0 
L 469 0 
L 469 531 
Q 828 903 1448 1529 
Q 2069 2156 2228 2338 
Q 2531 2678 2651 2914 
Q 2772 3150 2772 3378 
Q 2772 3750 2511 3984 
Q 2250 4219 1831 4219 
Q 1534 4219 1204 4116 
Q 875 4013 500 3803 
L 500 4441 
Q 881 4594 1212 4672 
Q 1544 4750 1819 4750 
Q 2544 4750 2975 4387 
Q 3406 4025 3406 3419 
Q 3406 3131 3298 2873 
Q 3191 2616 2906 2266 
Q 2828 2175 2409 1742 
Q 1991 1309 1228 531 
z
" transform="scale(0.015625)"/>
       </defs>
       <use xlink:href="#DejaVuSans-32"/>
       <use xlink:href="#DejaVuSans-30" x="63.623047"/>
       <use xlink:href="#DejaVuSans-30" x="127.246094"/>
      </g>
     </g>
    </g>
    <g id="xtick_6">
     <g id="line2d_11">
      <path d="M 341.976493 307.584 
L 341.976493 41.472 
" clip-path="url(#p97ed24ed7f)" style="fill: none; stroke: #b0b0b0; stroke-width: 0.8; stroke-linecap: square"/>
     </g>
     <g id="line2d_12">
      <g>
       <use xlink:href="#m5903523233" x="341.976493" y="307.584" style="stroke: #000000; stroke-width: 0.8"/>
      </g>
     </g>
     <g id="text_6">
      <!-- 250 -->
      <g transform="translate(332.432743 322.182437) scale(0.1 -0.1)">
       <use xlink:href="#DejaVuSans-32"/>
       <use xlink:href="#DejaVuSans-35" x="63.623047"/>
       <use xlink:href="#DejaVuSans-30" x="127.246094"/>
      </g>
     </g>
    </g>
    <g id="xtick_7">
     <g id="line2d_13">
      <path d="M 398.851792 307.584 
L 398.851792 41.472 
" clip-path="url(#p97ed24ed7f)" style="fill: none; stroke: #b0b0b0; stroke-width: 0.8; stroke-linecap: square"/>
     </g>
     <g id="line2d_14">
      <g>
       <use xlink:href="#m5903523233" x="398.851792" y="307.584" style="stroke: #000000; stroke-width: 0.8"/>
      </g>
     </g>
     <g id="text_7">
      <!-- 300 -->
      <g transform="translate(389.308042 322.182437) scale(0.1 -0.1)">
       <defs>
        <path id="DejaVuSans-33" d="M 2597 2516 
Q 3050 2419 3304 2112 
Q 3559 1806 3559 1356 
Q 3559 666 3084 287 
Q 2609 -91 1734 -91 
Q 1441 -91 1130 -33 
Q 819 25 488 141 
L 488 750 
Q 750 597 1062 519 
Q 1375 441 1716 441 
Q 2309 441 2620 675 
Q 2931 909 2931 1356 
Q 2931 1769 2642 2001 
Q 2353 2234 1838 2234 
L 1294 2234 
L 1294 2753 
L 1863 2753 
Q 2328 2753 2575 2939 
Q 2822 3125 2822 3475 
Q 2822 3834 2567 4026 
Q 2313 4219 1838 4219 
Q 1578 4219 1281 4162 
Q 984 4106 628 3988 
L 628 4550 
Q 988 4650 1302 4700 
Q 1616 4750 1894 4750 
Q 2613 4750 3031 4423 
Q 3450 4097 3450 3541 
Q 3450 3153 3228 2886 
Q 3006 2619 2597 2516 
z
" transform="scale(0.015625)"/>
       </defs>
       <use xlink:href="#DejaVuSans-33"/>
       <use xlink:href="#DejaVuSans-30" x="63.623047"/>
       <use xlink:href="#DejaVuSans-30" x="127.246094"/>
      </g>
     </g>
    </g>
    <g id="text_8">
     <!-- X-axis Label -->
     <g transform="translate(206.085 335.860562) scale(0.1 -0.1)">
      <defs>
       <path id="DejaVuSans-58" d="M 403 4666 
L 1081 4666 
L 2241 2931 
L 3406 4666 
L 4084 4666 
L 2584 2425 
L 4184 0 
L 3506 0 
L 2194 1984 
L 872 0 
L 191 0 
L 1856 2491 
L 403 4666 
z
" transform="scale(0.015625)"/>
       <path id="DejaVuSans-2d" d="M 313 2009 
L 1997 2009 
L 1997 1497 
L 313 1497 
L 313 2009 
z
" transform="scale(0.015625)"/>
       <path id="DejaVuSans-61" d="M 2194 1759 
Q 1497 1759 1228 1600 
Q 959 1441 959 1056 
Q 959 750 1161 570 
Q 1363 391 1709 391 
Q 2188 391 2477 730 
Q 2766 1069 2766 1631 
L 2766 1759 
L 2194 1759 
z
M 3341 1997 
L 3341 0 
L 2766 0 
L 2766 531 
Q 2569 213 2275 61 
Q 1981 -91 1556 -91 
Q 1019 -91 701 211 
Q 384 513 384 1019 
Q 384 1609 779 1909 
Q 1175 2209 1959 2209 
L 2766 2209 
L 2766 2266 
Q 2766 2663 2505 2880 
Q 2244 3097 1772 3097 
Q 1472 3097 1187 3025 
Q 903 2953 641 2809 
L 641 3341 
Q 956 3463 1253 3523 
Q 1550 3584 1831 3584 
Q 2591 3584 2966 3190 
Q 3341 2797 3341 1997 
z
" transform="scale(0.015625)"/>
       <path id="DejaVuSans-78" d="M 3513 3500 
L 2247 1797 
L 3578 0 
L 2900 0 
L 1881 1375 
L 863 0 
L 184 0 
L 1544 1831 
L 300 3500 
L 978 3500 
L 1906 2253 
L 2834 3500 
L 3513 3500 
z
" transform="scale(0.015625)"/>
       <path id="DejaVuSans-69" d="M 603 3500 
L 1178 3500 
L 1178 0 
L 603 0 
L 603 3500 
z
M 603 4863 
L 1178 4863 
L 1178 4134 
L 603 4134 
L 603 4863 
z
" transform="scale(0.015625)"/>
       <path id="DejaVuSans-73" d="M 2834 3397 
L 2834 2853 
Q 2591 2978 2328 3040 
Q 2066 3103 1784 3103 
Q 1356 3103 1142 2972 
Q 928 2841 928 2578 
Q 928 2378 1081 2264 
Q 1234 2150 1697 2047 
L 1894 2003 
Q 2506 1872 2764 1633 
Q 3022 1394 3022 966 
Q 3022 478 2636 193 
Q 2250 -91 1575 -91 
Q 1294 -91 989 -36 
Q 684 19 347 128 
L 347 722 
Q 666 556 975 473 
Q 1284 391 1588 391 
Q 1994 391 2212 530 
Q 2431 669 2431 922 
Q 2431 1156 2273 1281 
Q 2116 1406 1581 1522 
L 1381 1569 
Q 847 1681 609 1914 
Q 372 2147 372 2553 
Q 372 3047 722 3315 
Q 1072 3584 1716 3584 
Q 2034 3584 2315 3537 
Q 2597 3491 2834 3397 
z
" transform="scale(0.015625)"/>
       <path id="DejaVuSans-20" transform="scale(0.015625)"/>
       <path id="DejaVuSans-4c" d="M 628 4666 
L 1259 4666 
L 1259 531 
L 3531 531 
L 3531 0 
L 628 0 
L 628 4666 
z
" transform="scale(0.015625)"/>
       <path id="DejaVuSans-62" d="M 3116 1747 
Q 3116 2381 2855 2742 
Q 2594 3103 2138 3103 
Q 1681 3103 1420 2742 
Q 1159 2381 1159 1747 
Q 1159 1113 1420 752 
Q 1681 391 2138 391 
Q 2594 391 2855 752 
Q 3116 1113 3116 1747 
z
M 1159 2969 
Q 1341 3281 1617 3432 
Q 1894 3584 2278 3584 
Q 2916 3584 3314 3078 
Q 3713 2572 3713 1747 
Q 3713 922 3314 415 
Q 2916 -91 2278 -91 
Q 1894 -91 1617 61 
Q 1341 213 1159 525 
L 1159 0 
L 581 0 
L 581 4863 
L 1159 4863 
L 1159 2969 
z
" transform="scale(0.015625)"/>
       <path id="DejaVuSans-65" d="M 3597 1894 
L 3597 1613 
L 953 1613 
Q 991 1019 1311 708 
Q 1631 397 2203 397 
Q 2534 397 2845 478 
Q 3156 559 3463 722 
L 3463 178 
Q 3153 47 2828 -22 
Q 2503 -91 2169 -91 
Q 1331 -91 842 396 
Q 353 884 353 1716 
Q 353 2575 817 3079 
Q 1281 3584 2069 3584 
Q 2775 3584 3186 3129 
Q 3597 2675 3597 1894 
z
M 3022 2063 
Q 3016 2534 2758 2815 
Q 2500 3097 2075 3097 
Q 1594 3097 1305 2825 
Q 1016 2553 972 2059 
L 3022 2063 
z
" transform="scale(0.015625)"/>
       <path id="DejaVuSans-6c" d="M 603 4863 
L 1178 4863 
L 1178 0 
L 603 0 
L 603 4863 
z
" transform="scale(0.015625)"/>
      </defs>
      <use xlink:href="#DejaVuSans-58"/>
      <use xlink:href="#DejaVuSans-2d" x="63.505859"/>
      <use xlink:href="#DejaVuSans-61" x="99.589844"/>
      <use xlink:href="#DejaVuSans-78" x="160.869141"/>
      <use xlink:href="#DejaVuSans-69" x="220.048828"/>
      <use xlink:href="#DejaVuSans-73" x="247.832031"/>
      <use xlink:href="#DejaVuSans-20" x="299.931641"/>
      <use xlink:href="#DejaVuSans-4c" x="331.71875"/>
      <use xlink:href="#DejaVuSans-61" x="387.431641"/>
      <use xlink:href="#DejaVuSans-62" x="448.710938"/>
      <use xlink:href="#DejaVuSans-65" x="512.1875"/>
      <use xlink:href="#DejaVuSans-6c" x="573.710938"/>
     </g>
    </g>
   </g>
   <g id="matplotlib.axis_2">
    <g id="ytick_1">
     <g id="line2d_15">
      <path d="M 57.6 307.584 
L 414.72 307.584 
" clip-path="url(#p97ed24ed7f)" style="fill: none; stroke: #b0b0b0; stroke-width: 0.8; stroke-linecap: square"/>
     </g>
     <g id="line2d_16">
      <defs>
       <path id="mc115c16af0" d="M 0 0 
L -3.5 0 
" style="stroke: #000000; stroke-width: 0.8"/>
      </defs>
      <g>
       <use xlink:href="#mc115c16af0" x="57.6" y="307.584" style="stroke: #000000; stroke-width: 0.8"/>
      </g>
     </g>
     <g id="text_9">
      <!-- 0.0 -->
      <g transform="translate(34.696875 311.383219) scale(0.1 -0.1)">
       <defs>
        <path id="DejaVuSans-2e" d="M 684 794 
L 1344 794 
L 1344 0 
L 684 0 
L 684 794 
z
" transform="scale(0.015625)"/>
       </defs>
       <use xlink:href="#DejaVuSans-30"/>
       <use xlink:href="#DejaVuSans-2e" x="63.623047"/>
       <use xlink:href="#DejaVuSans-30" x="95.410156"/>
      </g>
     </g>
    </g>
    <g id="ytick_2">
     <g id="line2d_17">
      <path d="M 57.6 253.653415 
L 414.72 253.653415 
" clip-path="url(#p97ed24ed7f)" style="fill: none; stroke: #b0b0b0; stroke-width: 0.8; stroke-linecap: square"/>
     </g>
     <g id="line2d_18">
      <g>
       <use xlink:href="#mc115c16af0" x="57.6" y="253.653415" style="stroke: #000000; stroke-width: 0.8"/>
      </g>
     </g>
     <g id="text_10">
      <!-- 0.5 -->
      <g transform="translate(34.696875 257.452634) scale(0.1 -0.1)">
       <use xlink:href="#DejaVuSans-30"/>
       <use xlink:href="#DejaVuSans-2e" x="63.623047"/>
       <use xlink:href="#DejaVuSans-35" x="95.410156"/>
      </g>
     </g>
    </g>
    <g id="ytick_3">
     <g id="line2d_19">
      <path d="M 57.6 199.722831 
L 414.72 199.722831 
" clip-path="url(#p97ed24ed7f)" style="fill: none; stroke: #b0b0b0; stroke-width: 0.8; stroke-linecap: square"/>
     </g>
     <g id="line2d_20">
      <g>
       <use xlink:href="#mc115c16af0" x="57.6" y="199.722831" style="stroke: #000000; stroke-width: 0.8"/>
      </g>
     </g>
     <g id="text_11">
      <!-- 1.0 -->
      <g transform="translate(34.696875 203.52205) scale(0.1 -0.1)">
       <use xlink:href="#DejaVuSans-31"/>
       <use xlink:href="#DejaVuSans-2e" x="63.623047"/>
       <use xlink:href="#DejaVuSans-30" x="95.410156"/>
      </g>
     </g>
    </g>
    <g id="ytick_4">
     <g id="line2d_21">
      <path d="M 57.6 145.792246 
L 414.72 145.792246 
" clip-path="url(#p97ed24ed7f)" style="fill: none; stroke: #b0b0b0; stroke-width: 0.8; stroke-linecap: square"/>
     </g>
     <g id="line2d_22">
      <g>
       <use xlink:href="#mc115c16af0" x="57.6" y="145.792246" style="stroke: #000000; stroke-width: 0.8"/>
      </g>
     </g>
     <g id="text_12">
      <!-- 1.5 -->
      <g transform="translate(34.696875 149.591465) scale(0.1 -0.1)">
       <use xlink:href="#DejaVuSans-31"/>
       <use xlink:href="#DejaVuSans-2e" x="63.623047"/>
       <use xlink:href="#DejaVuSans-35" x="95.410156"/>
      </g>
     </g>
    </g>
    <g id="ytick_5">
     <g id="line2d_23">
      <path d="M 57.6 91.861662 
L 414.72 91.861662 
" clip-path="url(#p97ed24ed7f)" style="fill: none; stroke: #b0b0b0; stroke-width: 0.8; stroke-linecap: square"/>
     </g>
     <g id="line2d_24">
      <g>
       <use xlink:href="#mc115c16af0" x="57.6" y="91.861662" style="stroke: #000000; stroke-width: 0.8"/>
      </g>
     </g>
     <g id="text_13">
      <!-- 2.0 -->
      <g transform="translate(34.696875 95.660881) scale(0.1 -0.1)">
       <use xlink:href="#DejaVuSans-32"/>
       <use xlink:href="#DejaVuSans-2e" x="63.623047"/>
       <use xlink:href="#DejaVuSans-30" x="95.410156"/>
      </g>
     </g>
    </g>
    <g id="text_14">
     <!-- Y-axis Label -->
     <g transform="translate(28.617187 203.888156) rotate(-90) scale(0.1 -0.1)">
      <defs>
       <path id="DejaVuSans-59" d="M -13 4666 
L 666 4666 
L 1959 2747 
L 3244 4666 
L 3922 4666 
L 2272 2222 
L 2272 0 
L 1638 0 
L 1638 2222 
L -13 4666 
z
" transform="scale(0.015625)"/>
      </defs>
      <use xlink:href="#DejaVuSans-59"/>
      <use xlink:href="#DejaVuSans-2d" x="49.208984"/>
      <use xlink:href="#DejaVuSans-61" x="85.292969"/>
      <use xlink:href="#DejaVuSans-78" x="146.572266"/>
      <use xlink:href="#DejaVuSans-69" x="205.751953"/>
      <use xlink:href="#DejaVuSans-73" x="233.535156"/>
      <use xlink:href="#DejaVuSans-20" x="285.634766"/>
      <use xlink:href="#DejaVuSans-4c" x="317.421875"/>
      <use xlink:href="#DejaVuSans-61" x="373.134766"/>
      <use xlink:href="#DejaVuSans-62" x="434.414062"/>
      <use xlink:href="#DejaVuSans-65" x="497.890625"/>
      <use xlink:href="#DejaVuSans-6c" x="559.414062"/>
     </g>
    </g>
    <g id="text_15">
     <!-- 1e−5 -->
     <g transform="translate(57.6 38.472) scale(0.1 -0.1)">
      <defs>
       <path id="DejaVuSans-2212" d="M 678 2272 
L 4684 2272 
L 4684 1741 
L 678 1741 
L 678 2272 
z
" transform="scale(0.015625)"/>
      </defs>
      <use xlink:href="#DejaVuSans-31"/>
      <use xlink:href="#DejaVuSans-65" x="63.623047"/>
      <use xlink:href="#DejaVuSans-2212" x="125.146484"/>
      <use xlink:href="#DejaVuSans-35" x="208.935547"/>
     </g>
    </g>
   </g>
   <g id="line2d_25">
    <path d="M 57.6 169.567063 
L 58.737506 167.684827 
L 63.28753 167.684827 
L 64.425036 164.373829 
L 71.250072 164.373829 
L 72.387578 156.35394 
L 74.66259 156.35394 
L 75.800096 157.48701 
L 76.937602 156.35394 
L 80.350119 156.35394 
L 81.487625 151.943165 
L 82.625131 150.79957 
L 89.450167 150.79957 
L 90.587673 154.271983 
L 92.862685 154.271983 
L 94.000191 155.280363 
L 95.137697 155.280363 
L 96.275203 154.271983 
L 97.412709 154.271983 
L 98.550215 149.066073 
L 99.687721 149.066073 
L 100.825227 150.498338 
L 101.962733 151.668004 
L 103.100239 145.989574 
L 104.237745 145.989574 
L 105.375251 144.180679 
L 106.512757 147.89782 
L 107.650263 147.89782 
L 108.787769 149.926634 
L 109.925275 148.496882 
L 111.062781 154.133071 
L 114.475299 154.133071 
L 115.612805 144.862288 
L 116.750311 144.862288 
L 117.887817 156.871624 
L 119.025323 153.449671 
L 120.162828 144.862288 
L 121.300334 146.971034 
L 122.43784 149.511634 
L 123.575346 148.154604 
L 124.712852 134.768748 
L 125.850358 143.427059 
L 126.987864 154.345485 
L 128.12537 142.805093 
L 131.537888 142.805093 
L 132.675394 151.451013 
L 134.950406 151.451013 
L 136.087912 145.350665 
L 137.225418 151.351551 
L 138.362924 151.351551 
L 139.50043 150.879189 
L 142.912948 150.879189 
L 144.050454 154.879766 
L 145.18796 147.398218 
L 146.325466 144.104067 
L 147.462972 152.567533 
L 148.600478 146.805385 
L 149.737984 148.115098 
L 152.012996 148.115098 
L 153.150502 151.161645 
L 156.56302 151.161645 
L 157.700526 155.104009 
L 158.838032 155.104009 
L 159.975538 151.161645 
L 161.113043 151.161645 
L 162.250549 154.279076 
L 163.388055 151.161645 
L 166.800573 151.161645 
L 167.938079 152.309629 
L 169.075585 139.202608 
L 170.213091 153.413437 
L 171.350597 153.413437 
L 172.488103 139.202608 
L 173.625609 144.969445 
L 174.763115 144.969445 
L 175.900621 146.304202 
L 177.038127 144.969445 
L 178.175633 134.64251 
L 179.313139 131.91039 
L 180.450645 142.332081 
L 181.588151 142.332081 
L 182.725657 147.365084 
L 183.863163 147.586649 
L 185.000669 147.365084 
L 187.275681 147.365084 
L 188.413187 160.157935 
L 189.550693 160.157935 
L 190.688199 140.147786 
L 191.825705 142.203983 
L 194.100717 142.203983 
L 195.238223 154.32736 
L 202.063258 154.32736 
L 203.200764 151.23107 
L 204.33827 140.760164 
L 205.475776 142.971133 
L 210.0258 142.971133 
L 211.163306 136.679373 
L 212.300812 135.684998 
L 213.438318 145.960332 
L 214.575824 135.684998 
L 215.71333 135.684998 
L 216.850836 149.639123 
L 217.988342 149.639123 
L 219.125848 137.379561 
L 220.263354 133.18617 
L 221.40086 133.18617 
L 222.538366 143.798925 
L 223.675872 143.798925 
L 224.813378 135.751537 
L 225.950884 135.751537 
L 227.08839 128.622937 
L 228.225896 140.397322 
L 229.363402 140.397322 
L 230.500908 143.072565 
L 231.638414 143.419375 
L 232.77592 143.419375 
L 233.913426 143.072565 
L 238.46345 143.072565 
L 239.600956 150.002431 
L 245.288485 150.002431 
L 246.425991 130.68611 
L 247.563497 135.129119 
L 248.701003 132.953835 
L 249.838509 155.133743 
L 253.251027 155.133743 
L 254.388533 152.074082 
L 258.938557 152.074082 
L 260.076063 134.841303 
L 263.488581 134.841303 
L 264.626087 144.226327 
L 265.763593 132.841644 
L 269.176111 132.841644 
L 270.313617 137.721066 
L 271.451123 141.597555 
L 272.588629 132.841644 
L 273.726135 115.925532 
L 274.863641 128.90312 
L 276.001147 138.191629 
L 278.276159 138.191629 
L 279.413665 128.90312 
L 280.551171 128.90312 
L 281.688677 146.502358 
L 282.826183 120.40383 
L 283.963688 143.384486 
L 285.101194 149.316276 
L 287.376206 149.316276 
L 288.513712 143.384486 
L 289.651218 143.384486 
L 290.788724 148.521672 
L 291.92623 148.521672 
L 293.063736 145.429139 
L 296.476254 145.429139 
L 297.61376 136.553884 
L 298.751266 136.553884 
L 299.888772 128.633439 
L 301.026278 128.07935 
L 302.163784 139.15058 
L 303.30129 139.15058 
L 304.438796 152.591851 
L 316.951362 152.591851 
L 318.088868 135.625667 
L 319.226374 140.02605 
L 320.36388 124.812486 
L 321.501386 124.812486 
L 322.638892 142.056446 
L 323.776398 128.377002 
L 324.913903 124.812486 
L 326.051409 149.87295 
L 327.188915 124.812486 
L 328.326421 128.977477 
L 329.463927 135.909733 
L 330.601433 135.909733 
L 331.738939 147.277186 
L 332.876445 151.359739 
L 334.013951 153.286077 
L 335.151457 140.756758 
L 336.288963 140.756758 
L 337.426469 112.836393 
L 338.563975 145.340656 
L 346.526517 145.340656 
L 347.664023 147.277186 
L 348.801529 147.277186 
L 349.939035 120.628942 
L 351.076541 135.900134 
L 352.214047 153.536057 
L 355.626565 153.536057 
L 356.764071 152.786193 
L 361.314095 152.786193 
L 362.451601 153.150822 
L 364.726613 153.150822 
L 365.864118 137.804666 
L 367.001624 137.804666 
L 368.13913 121.691522 
L 370.414142 121.691522 
L 371.551648 139.065794 
L 372.689154 148.7491 
L 373.82666 135.758065 
L 374.964166 135.758065 
L 376.101672 132.932914 
L 377.239178 132.932914 
L 378.376684 106.046958 
L 379.51419 106.046958 
L 380.651696 110.80191 
L 381.789202 136.030157 
L 382.926708 112.402502 
L 384.064214 148.578167 
L 387.476732 148.578167 
L 388.614238 142.56206 
L 389.751744 142.56206 
L 390.88925 120.288547 
L 392.026756 127.693553 
L 393.164262 129.825854 
L 394.301768 127.693553 
L 395.439274 137.804138 
L 396.57678 137.804138 
L 397.714286 127.693553 
L 397.714286 127.693553 
" clip-path="url(#p97ed24ed7f)" style="fill: none; stroke: #1f77b4; stroke-width: 1.5; stroke-linecap: square"/>
   </g>
   <g id="line2d_26">
    <path d="M 57.6 98.432649 
L 79.212613 98.432649 
L 80.350119 96.442675 
L 82.625131 96.442675 
L 83.762637 91.953639 
L 116.750311 91.953639 
L 117.887817 79.085066 
L 138.362924 79.085066 
L 139.50043 76.22329 
L 141.775442 76.22329 
L 142.912948 79.085066 
L 173.625609 79.085066 
L 174.763115 78.804128 
L 181.588151 78.804128 
L 182.725657 77.585343 
L 194.100717 77.585343 
L 195.238223 77.860606 
L 196.375729 70.800929 
L 197.513235 77.080053 
L 204.33827 77.080053 
L 205.475776 72.919061 
L 206.613282 72.919061 
L 207.750788 75.161897 
L 212.300812 75.161897 
L 213.438318 73.648885 
L 214.575824 71.390813 
L 215.71333 73.648885 
L 216.850836 75.161897 
L 217.988342 75.161897 
L 219.125848 70.578101 
L 220.263354 67.975785 
L 221.40086 70.578101 
L 223.675872 70.578101 
L 224.813378 64.948781 
L 253.251027 64.948781 
L 254.388533 61.842259 
L 255.526039 61.842259 
L 256.663545 64.948781 
L 282.826183 64.948781 
L 283.963688 59.051819 
L 290.788724 59.051819 
L 291.92623 64.948781 
L 295.338748 64.948781 
L 296.476254 60.374515 
L 297.61376 64.858864 
L 298.751266 64.528885 
L 299.888772 60.888745 
L 301.026278 64.528885 
L 302.163784 64.528885 
L 303.30129 64.858864 
L 304.438796 64.581484 
L 305.576302 64.858864 
L 307.851314 64.948781 
L 315.813856 64.948781 
L 316.951362 58.424748 
L 321.501386 58.424748 
L 322.638892 58.241829 
L 329.463927 58.241829 
L 330.601433 56.805367 
L 337.426469 56.805367 
L 338.563975 63.217707 
L 340.838987 63.217707 
L 341.976493 61.373289 
L 343.113999 61.373289 
L 344.251505 62.758263 
L 345.389011 64.948781 
L 349.939035 64.948781 
L 351.076541 57.078962 
L 364.726613 57.078962 
L 365.864118 53.845189 
L 367.001624 57.078962 
L 370.414142 57.078962 
L 371.551648 57.936412 
L 373.82666 57.936412 
L 374.964166 64.649264 
L 376.101672 57.734497 
L 377.239178 62.232685 
L 378.376684 64.948781 
L 380.651696 64.948781 
L 381.789202 63.166033 
L 386.339226 63.166033 
L 387.476732 61.6824 
L 388.614238 61.190487 
L 389.751744 63.166033 
L 390.88925 63.166033 
L 392.026756 60.347363 
L 394.301768 60.347363 
L 395.439274 58.048984 
L 396.57678 57.091518 
L 397.714286 57.091518 
L 397.714286 57.091518 
" clip-path="url(#p97ed24ed7f)" style="fill: none; stroke: #ff7f0e; stroke-width: 1.5; stroke-linecap: square"/>
   </g>
   <g id="line2d_27">
    <path d="M 57.6 138.439949 
L 58.737506 137.349195 
L 61.012518 136.875111 
L 62.150024 135.697119 
L 63.28753 133.841926 
L 64.425036 132.367955 
L 65.562542 132.071116 
L 66.700048 131.391019 
L 67.837554 130.27922 
L 68.97506 128.255621 
L 70.112566 127.065765 
L 71.250072 125.081814 
L 72.387578 124.50799 
L 73.525084 122.861502 
L 75.800096 120.942991 
L 76.937602 121.423832 
L 78.075108 119.507592 
L 79.212613 119.211441 
L 80.350119 118.650401 
L 81.487625 117.662693 
L 82.625131 116.916898 
L 84.900143 114.936276 
L 86.037649 115.490954 
L 87.175155 114.632633 
L 88.312661 114.115059 
L 89.450167 112.964607 
L 91.725179 111.175793 
L 92.862685 111.297746 
L 94.000191 112.494635 
L 96.275203 111.322338 
L 97.412709 110.952799 
L 98.550215 110.02602 
L 99.687721 110.252337 
L 100.825227 108.80238 
L 103.100239 107.916186 
L 104.237745 106.767515 
L 106.512757 106.362438 
L 107.650263 106.139611 
L 108.787769 106.622275 
L 111.062781 106.962648 
L 112.200287 106.965313 
L 113.337793 107.347615 
L 114.475299 106.120544 
L 115.612805 105.900274 
L 116.750311 106.403501 
L 117.887817 106.602537 
L 119.025323 106.14401 
L 120.162828 105.928307 
L 122.43784 105.8756 
L 124.712852 104.525571 
L 125.850358 103.733776 
L 126.987864 103.778864 
L 129.262876 104.092529 
L 130.400382 103.839684 
L 131.537888 103.740899 
L 132.675394 104.633768 
L 133.8129 104.899503 
L 136.087912 103.044269 
L 137.225418 103.683322 
L 138.362924 104.837141 
L 139.50043 104.865207 
L 140.637936 104.758437 
L 141.775442 105.280231 
L 142.912948 105.045149 
L 144.050454 104.541944 
L 145.18796 104.220248 
L 147.462972 103.943475 
L 148.600478 103.381568 
L 150.87549 103.168193 
L 153.150502 103.462444 
L 154.288008 102.816884 
L 155.425514 102.781496 
L 156.56302 102.538673 
L 157.700526 102.521341 
L 158.838032 100.87479 
L 159.975538 100.894887 
L 161.113043 100.533669 
L 162.250549 99.717825 
L 163.388055 100.15194 
L 164.525561 98.528371 
L 166.800573 96.23518 
L 167.938079 94.750561 
L 169.075585 94.082177 
L 170.213091 92.910287 
L 171.350597 93.140616 
L 173.625609 92.151688 
L 174.763115 92.558498 
L 175.900621 92.381242 
L 177.038127 90.96955 
L 178.175633 90.538198 
L 179.313139 89.589262 
L 180.450645 90.59532 
L 182.725657 90.677084 
L 183.863163 90.29575 
L 185.000669 89.640643 
L 186.138175 89.584929 
L 187.275681 90.168733 
L 188.413187 88.858082 
L 189.550693 88.628466 
L 190.688199 89.48067 
L 191.825705 88.568375 
L 192.963211 88.22118 
L 194.100717 89.017493 
L 195.238223 88.998581 
L 197.513235 87.448467 
L 198.650741 87.294227 
L 199.788247 86.686277 
L 200.925753 86.913129 
L 202.063258 86.49218 
L 203.200764 85.79258 
L 204.33827 85.354043 
L 205.475776 85.208566 
L 206.613282 84.880066 
L 207.750788 85.104361 
L 208.888294 84.664381 
L 210.0258 84.450374 
L 211.163306 84.355531 
L 212.300812 84.435835 
L 213.438318 84.939168 
L 215.71333 84.753711 
L 216.850836 84.896336 
L 217.988342 83.789869 
L 219.125848 83.152741 
L 220.263354 83.166245 
L 221.40086 83.058059 
L 222.538366 83.786998 
L 223.675872 83.631897 
L 224.813378 83.245882 
L 225.950884 83.137528 
L 227.08839 82.041757 
L 228.225896 82.019382 
L 229.363402 82.642594 
L 231.638414 82.843396 
L 232.77592 82.474609 
L 233.913426 82.6516 
L 236.188438 82.531059 
L 237.325944 83.298399 
L 238.46345 82.883449 
L 239.600956 82.837977 
L 240.738462 83.007452 
L 241.875968 82.988159 
L 243.013473 83.329977 
L 244.150979 83.040723 
L 245.288485 82.14266 
L 247.563497 80.918665 
L 248.701003 80.219832 
L 249.838509 80.150893 
L 250.976015 80.513589 
L 252.113521 81.213831 
L 253.251027 80.603089 
L 254.388533 80.139721 
L 255.526039 80.358798 
L 256.663545 81.328107 
L 257.801051 81.752782 
L 258.938557 81.837972 
L 260.076063 81.398108 
L 261.213569 81.893742 
L 262.351075 81.728685 
L 264.626087 82.032554 
L 265.763593 81.032162 
L 266.901099 82.048895 
L 268.038605 81.653925 
L 269.176111 81.68265 
L 270.313617 81.076833 
L 271.451123 80.297169 
L 272.588629 80.2683 
L 273.726135 79.576062 
L 274.863641 80.024566 
L 276.001147 80.255656 
L 277.138653 80.340642 
L 278.276159 80.948987 
L 279.413665 79.68466 
L 280.551171 80.443788 
L 281.688677 80.5318 
L 282.826183 80.789396 
L 283.963688 80.895953 
L 285.101194 81.33757 
L 286.2387 81.632527 
L 287.376206 81.627807 
L 288.513712 80.677056 
L 289.651218 80.581951 
L 290.788724 81.073178 
L 291.92623 80.200608 
L 293.063736 80.048604 
L 294.201242 79.669305 
L 295.338748 79.806514 
L 296.476254 78.919785 
L 297.61376 78.503417 
L 298.751266 78.390019 
L 299.888772 78.548552 
L 301.026278 78.938496 
L 302.163784 80.09047 
L 303.30129 79.884144 
L 304.438796 78.453621 
L 305.576302 78.70925 
L 306.713808 78.556273 
L 307.851314 77.490459 
L 308.98882 78.126942 
L 310.126326 79.678274 
L 311.263832 77.940602 
L 312.401338 77.432543 
L 313.538844 77.30029 
L 314.67635 76.310616 
L 315.813856 77.33409 
L 319.226374 76.931326 
L 320.36388 77.591439 
L 321.501386 76.372832 
L 322.638892 76.013659 
L 323.776398 73.653612 
L 326.051409 73.933941 
L 327.188915 72.563808 
L 328.326421 73.443152 
L 329.463927 73.918013 
L 330.601433 73.521359 
L 331.738939 72.796626 
L 332.876445 72.675094 
L 334.013951 73.399131 
L 335.151457 72.371374 
L 336.288963 72.32252 
L 337.426469 72.5875 
L 339.701481 73.703977 
L 340.838987 73.894667 
L 341.976493 72.599947 
L 343.113999 72.708508 
L 344.251505 72.172246 
L 345.389011 72.631143 
L 346.526517 73.520723 
L 347.664023 72.685964 
L 349.939035 72.181767 
L 351.076541 71.637166 
L 352.214047 71.998965 
L 353.351553 70.49897 
L 354.489059 69.936719 
L 356.764071 70.460723 
L 357.901577 70.488998 
L 359.039083 71.414879 
L 360.176589 69.72426 
L 362.451601 70.345394 
L 363.589107 69.980118 
L 364.726613 69.893609 
L 365.864118 68.949778 
L 367.001624 69.032208 
L 368.13913 68.84901 
L 369.276636 69.448634 
L 370.414142 69.31238 
L 371.551648 69.386106 
L 372.689154 69.275939 
L 373.82666 69.992118 
L 374.964166 70.187888 
L 376.101672 70.046005 
L 377.239178 70.081532 
L 379.51419 69.001354 
L 380.651696 69.018554 
L 381.789202 69.264318 
L 382.926708 68.283947 
L 384.064214 68.710811 
L 385.20172 68.639437 
L 387.476732 69.769651 
L 388.614238 69.688141 
L 389.751744 69.965099 
L 390.88925 69.647356 
L 392.026756 69.114314 
L 393.164262 69.093423 
L 394.301768 68.343908 
L 395.439274 68.579172 
L 396.57678 69.035213 
L 397.714286 68.86117 
L 397.714286 68.86117 
" clip-path="url(#p97ed24ed7f)" style="fill: none; stroke: #2ca02c; stroke-width: 1.5; stroke-linecap: square"/>
   </g>
   <g id="line2d_28">
    <path d="M 57.6 293.889977 
L 58.737506 293.22823 
L 59.875012 293.640197 
L 61.012518 294.373532 
L 62.150024 293.641441 
L 63.28753 292.718359 
L 64.425036 292.646244 
L 65.562542 292.908202 
L 66.700048 291.629338 
L 67.837554 291.87966 
L 68.97506 291.345536 
L 70.112566 291.816643 
L 71.250072 292.082191 
L 72.387578 291.39158 
L 73.525084 291.565073 
L 74.66259 291.440494 
L 75.800096 291.826648 
L 79.212613 291.713409 
L 80.350119 291.943909 
L 81.487625 292.41526 
L 83.762637 292.667193 
L 84.900143 293.366392 
L 86.037649 293.448444 
L 91.725179 294.42509 
L 92.862685 293.804892 
L 94.000191 293.707532 
L 95.137697 294.283944 
L 96.275203 295.178593 
L 97.412709 295.538471 
L 98.550215 295.68791 
L 99.687721 295.019979 
L 100.825227 295.623285 
L 101.962733 296.055457 
L 103.100239 297.205218 
L 104.237745 298.087696 
L 105.375251 298.433809 
L 106.512757 298.657793 
L 107.650263 298.736652 
L 108.787769 297.871824 
L 109.925275 297.678277 
L 111.062781 297.156993 
L 112.200287 297.271226 
L 113.337793 296.157583 
L 114.475299 297.927889 
L 115.612805 298.889419 
L 116.750311 297.96587 
L 117.887817 297.614378 
L 119.025323 298.073465 
L 120.162828 298.340773 
L 121.300334 298.303253 
L 122.43784 298.103723 
L 123.575346 298.755304 
L 124.712852 299.895133 
L 125.850358 299.951864 
L 126.987864 299.397044 
L 128.12537 298.986292 
L 130.400382 298.837623 
L 131.537888 299.074617 
L 132.675394 299.609675 
L 133.8129 298.400225 
L 134.950406 298.293749 
L 136.087912 299.67437 
L 137.225418 299.447233 
L 138.362924 297.829006 
L 139.50043 298.187003 
L 140.637936 298.190203 
L 141.775442 297.50826 
L 142.912948 298.739726 
L 144.050454 299.293126 
L 145.18796 299.406002 
L 146.325466 299.761374 
L 147.462972 298.434706 
L 148.600478 298.5154 
L 149.737984 298.011022 
L 150.87549 298.012962 
L 152.012996 296.705274 
L 153.150502 296.419064 
L 154.288008 294.896616 
L 155.425514 293.8098 
L 156.56302 294.459319 
L 157.700526 293.420226 
L 158.838032 294.160743 
L 159.975538 294.521634 
L 161.113043 294.651299 
L 162.250549 293.679937 
L 163.388055 292.968671 
L 164.525561 293.475306 
L 165.663067 294.206008 
L 166.800573 294.18592 
L 167.938079 294.689747 
L 169.075585 295.71556 
L 170.213091 294.951422 
L 171.350597 294.721496 
L 172.488103 295.694529 
L 173.625609 296.007304 
L 174.763115 296.033515 
L 175.900621 295.021561 
L 177.038127 295.412663 
L 178.175633 296.113182 
L 179.313139 297.369992 
L 180.450645 297.077102 
L 181.588151 296.065743 
L 182.725657 294.518851 
L 183.863163 293.906399 
L 185.000669 294.311721 
L 186.138175 293.533033 
L 187.275681 292.481132 
L 188.413187 294.16879 
L 189.550693 295.12823 
L 190.688199 295.85161 
L 191.825705 296.319549 
L 192.963211 297.060357 
L 194.100717 296.097972 
L 195.238223 295.609636 
L 196.375729 295.56626 
L 197.513235 297.41458 
L 199.788247 296.995708 
L 200.925753 295.978737 
L 202.063258 295.974371 
L 205.475776 298.439486 
L 206.613282 297.819731 
L 207.750788 297.546217 
L 208.888294 298.057185 
L 210.0258 298.078364 
L 211.163306 298.569839 
L 212.300812 298.542145 
L 213.438318 296.778731 
L 214.575824 297.177561 
L 215.71333 297.273661 
L 216.850836 296.975038 
L 217.988342 298.15589 
L 219.125848 299.014337 
L 220.263354 297.962966 
L 221.40086 298.502477 
L 222.538366 296.752959 
L 223.675872 297.185365 
L 224.813378 298.054354 
L 225.950884 298.150067 
L 227.08839 299.530794 
L 228.225896 298.950595 
L 229.363402 298.546018 
L 230.500908 297.968838 
L 231.638414 297.108051 
L 232.77592 296.835084 
L 233.913426 297.34017 
L 235.050932 296.434351 
L 236.188438 297.246847 
L 237.325944 295.727339 
L 238.46345 297.153545 
L 240.738462 297.229435 
L 241.875968 297.634494 
L 243.013473 296.37625 
L 244.150979 296.471876 
L 246.425991 298.763495 
L 247.563497 299.079792 
L 248.701003 301.308961 
L 249.838509 300.593194 
L 252.113521 296.408418 
L 253.251027 299.081471 
L 254.388533 300.179491 
L 255.526039 299.20105 
L 256.663545 297.15582 
L 258.938557 297.975722 
L 260.076063 299.960949 
L 262.351075 298.439036 
L 263.488581 297.741722 
L 264.626087 297.607546 
L 265.763593 299.27301 
L 266.901099 297.572182 
L 268.038605 297.28532 
L 269.176111 296.664227 
L 271.451123 299.04176 
L 272.588629 299.358767 
L 273.726135 300.210869 
L 274.863641 299.620801 
L 276.001147 298.435343 
L 278.276159 297.52841 
L 279.413665 299.47544 
L 280.551171 298.697031 
L 281.688677 298.522006 
L 282.826183 298.510231 
L 283.963688 297.514037 
L 286.2387 296.273955 
L 288.513712 295.896826 
L 289.651218 296.404401 
L 290.788724 295.282758 
L 291.92623 295.983854 
L 293.063736 296.182387 
L 294.201242 296.062394 
L 295.338748 294.430775 
L 296.476254 295.98777 
L 297.61376 296.713182 
L 298.751266 296.952058 
L 299.888772 295.739164 
L 301.026278 295.291298 
L 303.30129 293.53673 
L 304.438796 295.099838 
L 305.576302 294.58981 
L 306.713808 294.634665 
L 307.851314 296.077744 
L 308.98882 294.237648 
L 310.126326 291.202708 
L 311.263832 294.238702 
L 313.538844 294.051458 
L 314.67635 294.540454 
L 315.813856 294.226473 
L 316.951362 293.696515 
L 318.088868 293.599067 
L 319.226374 293.05208 
L 320.36388 293.008609 
L 321.501386 293.845022 
L 322.638892 293.174084 
L 323.776398 294.760546 
L 324.913903 294.50866 
L 326.051409 293.777775 
L 327.188915 295.371391 
L 328.326421 294.97108 
L 329.463927 293.732231 
L 330.601433 294.616559 
L 331.738939 294.962947 
L 332.876445 294.569648 
L 334.013951 292.70428 
L 335.151457 295.207913 
L 336.288963 296.370347 
L 337.426469 296.579811 
L 338.563975 296.208387 
L 339.701481 293.960337 
L 340.838987 293.458503 
L 341.976493 295.529846 
L 343.113999 294.390281 
L 344.251505 295.396119 
L 345.389011 295.324249 
L 346.526517 294.532959 
L 347.664023 295.568771 
L 351.076541 297.190754 
L 352.214047 295.40342 
L 353.351553 295.886872 
L 354.489059 297.811084 
L 355.626565 297.081518 
L 356.764071 296.669363 
L 357.901577 295.533071 
L 359.039083 294.6497 
L 360.176589 297.234579 
L 362.451601 294.37865 
L 363.589107 295.799154 
L 364.726613 295.892305 
L 365.864118 298.135084 
L 367.001624 297.794517 
L 368.13913 299.31282 
L 369.276636 297.761174 
L 370.414142 298.050718 
L 371.551648 297.382176 
L 372.689154 297.237925 
L 373.82666 296.335692 
L 374.964166 295.611074 
L 376.101672 296.369451 
L 377.239178 296.828505 
L 378.376684 298.745987 
L 379.51419 299.507292 
L 380.651696 299.660607 
L 381.789202 298.0477 
L 382.926708 299.907001 
L 384.064214 298.432493 
L 385.20172 298.364751 
L 386.339226 296.480999 
L 387.476732 295.204472 
L 388.614238 295.964166 
L 389.751744 295.817013 
L 392.026756 297.22089 
L 393.164262 297.000501 
L 394.301768 298.700355 
L 395.439274 298.05739 
L 396.57678 296.950792 
L 397.714286 297.923352 
L 397.714286 297.923352 
" clip-path="url(#p97ed24ed7f)" style="fill: none; stroke: #d62728; stroke-width: 1.5; stroke-linecap: square"/>
   </g>
   <g id="patch_3">
    <path d="M 57.6 307.584 
L 57.6 41.472 
" style="fill: none; stroke: #000000; stroke-width: 0.8; stroke-linejoin: miter; stroke-linecap: square"/>
   </g>
   <g id="patch_4">
    <path d="M 414.72 307.584 
L 414.72 41.472 
" style="fill: none; stroke: #000000; stroke-width: 0.8; stroke-linejoin: miter; stroke-linecap: square"/>
   </g>
   <g id="patch_5">
    <path d="M 57.6 307.584 
L 414.72 307.584 
" style="fill: none; stroke: #000000; stroke-width: 0.8; stroke-linejoin: miter; stroke-linecap: square"/>
   </g>
   <g id="patch_6">
    <path d="M 57.6 41.472 
L 414.72 41.472 
" style="fill: none; stroke: #000000; stroke-width: 0.8; stroke-linejoin: miter; stroke-linecap: square"/>
   </g>
   <g id="text_16">
    <!-- Columns Plot -->
    <g transform="translate(196.842187 35.472) scale(0.12 -0.12)">
     <defs>
      <path id="DejaVuSans-43" d="M 4122 4306 
L 4122 3641 
Q 3803 3938 3442 4084 
Q 3081 4231 2675 4231 
Q 1875 4231 1450 3742 
Q 1025 3253 1025 2328 
Q 1025 1406 1450 917 
Q 1875 428 2675 428 
Q 3081 428 3442 575 
Q 3803 722 4122 1019 
L 4122 359 
Q 3791 134 3420 21 
Q 3050 -91 2638 -91 
Q 1578 -91 968 557 
Q 359 1206 359 2328 
Q 359 3453 968 4101 
Q 1578 4750 2638 4750 
Q 3056 4750 3426 4639 
Q 3797 4528 4122 4306 
z
" transform="scale(0.015625)"/>
      <path id="DejaVuSans-6f" d="M 1959 3097 
Q 1497 3097 1228 2736 
Q 959 2375 959 1747 
Q 959 1119 1226 758 
Q 1494 397 1959 397 
Q 2419 397 2687 759 
Q 2956 1122 2956 1747 
Q 2956 2369 2687 2733 
Q 2419 3097 1959 3097 
z
M 1959 3584 
Q 2709 3584 3137 3096 
Q 3566 2609 3566 1747 
Q 3566 888 3137 398 
Q 2709 -91 1959 -91 
Q 1206 -91 779 398 
Q 353 888 353 1747 
Q 353 2609 779 3096 
Q 1206 3584 1959 3584 
z
" transform="scale(0.015625)"/>
      <path id="DejaVuSans-75" d="M 544 1381 
L 544 3500 
L 1119 3500 
L 1119 1403 
Q 1119 906 1312 657 
Q 1506 409 1894 409 
Q 2359 409 2629 706 
Q 2900 1003 2900 1516 
L 2900 3500 
L 3475 3500 
L 3475 0 
L 2900 0 
L 2900 538 
Q 2691 219 2414 64 
Q 2138 -91 1772 -91 
Q 1169 -91 856 284 
Q 544 659 544 1381 
z
M 1991 3584 
L 1991 3584 
z
" transform="scale(0.015625)"/>
      <path id="DejaVuSans-6d" d="M 3328 2828 
Q 3544 3216 3844 3400 
Q 4144 3584 4550 3584 
Q 5097 3584 5394 3201 
Q 5691 2819 5691 2113 
L 5691 0 
L 5113 0 
L 5113 2094 
Q 5113 2597 4934 2840 
Q 4756 3084 4391 3084 
Q 3944 3084 3684 2787 
Q 3425 2491 3425 1978 
L 3425 0 
L 2847 0 
L 2847 2094 
Q 2847 2600 2669 2842 
Q 2491 3084 2119 3084 
Q 1678 3084 1418 2786 
Q 1159 2488 1159 1978 
L 1159 0 
L 581 0 
L 581 3500 
L 1159 3500 
L 1159 2956 
Q 1356 3278 1631 3431 
Q 1906 3584 2284 3584 
Q 2666 3584 2933 3390 
Q 3200 3197 3328 2828 
z
" transform="scale(0.015625)"/>
      <path id="DejaVuSans-6e" d="M 3513 2113 
L 3513 0 
L 2938 0 
L 2938 2094 
Q 2938 2591 2744 2837 
Q 2550 3084 2163 3084 
Q 1697 3084 1428 2787 
Q 1159 2491 1159 1978 
L 1159 0 
L 581 0 
L 581 3500 
L 1159 3500 
L 1159 2956 
Q 1366 3272 1645 3428 
Q 1925 3584 2291 3584 
Q 2894 3584 3203 3211 
Q 3513 2838 3513 2113 
z
" transform="scale(0.015625)"/>
      <path id="DejaVuSans-50" d="M 1259 4147 
L 1259 2394 
L 2053 2394 
Q 2494 2394 2734 2622 
Q 2975 2850 2975 3272 
Q 2975 3691 2734 3919 
Q 2494 4147 2053 4147 
L 1259 4147 
z
M 628 4666 
L 2053 4666 
Q 2838 4666 3239 4311 
Q 3641 3956 3641 3272 
Q 3641 2581 3239 2228 
Q 2838 1875 2053 1875 
L 1259 1875 
L 1259 0 
L 628 0 
L 628 4666 
z
" transform="scale(0.015625)"/>
      <path id="DejaVuSans-74" d="M 1172 4494 
L 1172 3500 
L 2356 3500 
L 2356 3053 
L 1172 3053 
L 1172 1153 
Q 1172 725 1289 603 
Q 1406 481 1766 481 
L 2356 481 
L 2356 0 
L 1766 0 
Q 1100 0 847 248 
Q 594 497 594 1153 
L 594 3053 
L 172 3053 
L 172 3500 
L 594 3500 
L 594 4494 
L 1172 4494 
z
" transform="scale(0.015625)"/>
     </defs>
     <use xlink:href="#DejaVuSans-43"/>
     <use xlink:href="#DejaVuSans-6f" x="69.824219"/>
     <use xlink:href="#DejaVuSans-6c" x="131.005859"/>
     <use xlink:href="#DejaVuSans-75" x="158.789062"/>
     <use xlink:href="#DejaVuSans-6d" x="222.167969"/>
     <use xlink:href="#DejaVuSans-6e" x="319.580078"/>
     <use xlink:href="#DejaVuSans-73" x="382.958984"/>
     <use xlink:href="#DejaVuSans-20" x="435.058594"/>
     <use xlink:href="#DejaVuSans-50" x="466.845703"/>
     <use xlink:href="#DejaVuSans-6c" x="527.148438"/>
     <use xlink:href="#DejaVuSans-6f" x="554.931641"/>
     <use xlink:href="#DejaVuSans-74" x="616.113281"/>
    </g>
   </g>
   <g id="legend_1">
    <g id="patch_7">
     <path d="M 22.546313 357.15145 
L 425.576 357.15145 
Q 427.576 357.15145 427.576 355.15145 
L 427.576 341.1952 
Q 427.576 339.1952 425.576 339.1952 
L 22.546313 339.1952 
Q 20.546313 339.1952 20.546313 341.1952 
L 20.546313 355.15145 
Q 20.546313 357.15145 22.546313 357.15145 
z
" style="fill: #ffffff; opacity: 0.8; stroke: #cccccc; stroke-linejoin: miter"/>
    </g>
    <g id="line2d_29">
     <path style="fill: none; stroke: #1f77b4; stroke-width: 1.5; stroke-linecap: square"/>
    </g>
    <g id="text_17">
     <!-- min_fitness -->
     <g transform="translate(52.546313 350.793637) scale(0.1 -0.1)">
      <defs>
       <path id="DejaVuSans-5f" d="M 3263 -1063 
L 3263 -1509 
L -63 -1509 
L -63 -1063 
L 3263 -1063 
z
" transform="scale(0.015625)"/>
       <path id="DejaVuSans-66" d="M 2375 4863 
L 2375 4384 
L 1825 4384 
Q 1516 4384 1395 4259 
Q 1275 4134 1275 3809 
L 1275 3500 
L 2222 3500 
L 2222 3053 
L 1275 3053 
L 1275 0 
L 697 0 
L 697 3053 
L 147 3053 
L 147 3500 
L 697 3500 
L 697 3744 
Q 697 4328 969 4595 
Q 1241 4863 1831 4863 
L 2375 4863 
z
" transform="scale(0.015625)"/>
      </defs>
      <use xlink:href="#DejaVuSans-6d"/>
      <use xlink:href="#DejaVuSans-69" x="97.412109"/>
      <use xlink:href="#DejaVuSans-6e" x="125.195312"/>
      <use xlink:href="#DejaVuSans-5f" x="188.574219"/>
      <use xlink:href="#DejaVuSans-66" x="238.574219"/>
      <use xlink:href="#DejaVuSans-69" x="273.779297"/>
      <use xlink:href="#DejaVuSans-74" x="301.5625"/>
      <use xlink:href="#DejaVuSans-6e" x="340.771484"/>
      <use xlink:href="#DejaVuSans-65" x="404.150391"/>
      <use xlink:href="#DejaVuSans-73" x="465.673828"/>
      <use xlink:href="#DejaVuSans-73" x="517.773438"/>
     </g>
    </g>
    <g id="line2d_30">
     <path style="fill: none; stroke: #ff7f0e; stroke-width: 1.5; stroke-linecap: square"/>
    </g>
    <g id="text_18">
     <!-- max_fitness -->
     <g transform="translate(157.530688 350.793637) scale(0.1 -0.1)">
      <use xlink:href="#DejaVuSans-6d"/>
      <use xlink:href="#DejaVuSans-61" x="97.412109"/>
      <use xlink:href="#DejaVuSans-78" x="158.691406"/>
      <use xlink:href="#DejaVuSans-5f" x="217.871094"/>
      <use xlink:href="#DejaVuSans-66" x="267.871094"/>
      <use xlink:href="#DejaVuSans-69" x="303.076172"/>
      <use xlink:href="#DejaVuSans-74" x="330.859375"/>
      <use xlink:href="#DejaVuSans-6e" x="370.068359"/>
      <use xlink:href="#DejaVuSans-65" x="433.447266"/>
      <use xlink:href="#DejaVuSans-73" x="494.970703"/>
      <use xlink:href="#DejaVuSans-73" x="547.070312"/>
     </g>
    </g>
    <g id="line2d_31">
     <path style="fill: none; stroke: #2ca02c; stroke-width: 1.5; stroke-linecap: square"/>
    </g>
    <g id="text_19">
     <!-- avg_fitness -->
     <g transform="translate(265.446313 350.793637) scale(0.1 -0.1)">
      <defs>
       <path id="DejaVuSans-76" d="M 191 3500 
L 800 3500 
L 1894 563 
L 2988 3500 
L 3597 3500 
L 2284 0 
L 1503 0 
L 191 3500 
z
" transform="scale(0.015625)"/>
       <path id="DejaVuSans-67" d="M 2906 1791 
Q 2906 2416 2648 2759 
Q 2391 3103 1925 3103 
Q 1463 3103 1205 2759 
Q 947 2416 947 1791 
Q 947 1169 1205 825 
Q 1463 481 1925 481 
Q 2391 481 2648 825 
Q 2906 1169 2906 1791 
z
M 3481 434 
Q 3481 -459 3084 -895 
Q 2688 -1331 1869 -1331 
Q 1566 -1331 1297 -1286 
Q 1028 -1241 775 -1147 
L 775 -588 
Q 1028 -725 1275 -790 
Q 1522 -856 1778 -856 
Q 2344 -856 2625 -561 
Q 2906 -266 2906 331 
L 2906 616 
Q 2728 306 2450 153 
Q 2172 0 1784 0 
Q 1141 0 747 490 
Q 353 981 353 1791 
Q 353 2603 747 3093 
Q 1141 3584 1784 3584 
Q 2172 3584 2450 3431 
Q 2728 3278 2906 2969 
L 2906 3500 
L 3481 3500 
L 3481 434 
z
" transform="scale(0.015625)"/>
      </defs>
      <use xlink:href="#DejaVuSans-61"/>
      <use xlink:href="#DejaVuSans-76" x="61.279297"/>
      <use xlink:href="#DejaVuSans-67" x="120.458984"/>
      <use xlink:href="#DejaVuSans-5f" x="183.935547"/>
      <use xlink:href="#DejaVuSans-66" x="233.935547"/>
      <use xlink:href="#DejaVuSans-69" x="269.140625"/>
      <use xlink:href="#DejaVuSans-74" x="296.923828"/>
      <use xlink:href="#DejaVuSans-6e" x="336.132812"/>
      <use xlink:href="#DejaVuSans-65" x="399.511719"/>
      <use xlink:href="#DejaVuSans-73" x="461.035156"/>
      <use xlink:href="#DejaVuSans-73" x="513.134766"/>
     </g>
    </g>
    <g id="line2d_32">
     <path style="fill: none; stroke: #d62728; stroke-width: 1.5; stroke-linecap: square"/>
    </g>
    <g id="text_20">
     <!-- std_fitness -->
     <g transform="translate(369.96975 350.793637) scale(0.1 -0.1)">
      <defs>
       <path id="DejaVuSans-64" d="M 2906 2969 
L 2906 4863 
L 3481 4863 
L 3481 0 
L 2906 0 
L 2906 525 
Q 2725 213 2448 61 
Q 2172 -91 1784 -91 
Q 1150 -91 751 415 
Q 353 922 353 1747 
Q 353 2572 751 3078 
Q 1150 3584 1784 3584 
Q 2172 3584 2448 3432 
Q 2725 3281 2906 2969 
z
M 947 1747 
Q 947 1113 1208 752 
Q 1469 391 1925 391 
Q 2381 391 2643 752 
Q 2906 1113 2906 1747 
Q 2906 2381 2643 2742 
Q 2381 3103 1925 3103 
Q 1469 3103 1208 2742 
Q 947 2381 947 1747 
z
" transform="scale(0.015625)"/>
      </defs>
      <use xlink:href="#DejaVuSans-73"/>
      <use xlink:href="#DejaVuSans-74" x="52.099609"/>
      <use xlink:href="#DejaVuSans-64" x="91.308594"/>
      <use xlink:href="#DejaVuSans-5f" x="154.785156"/>
      <use xlink:href="#DejaVuSans-66" x="204.785156"/>
      <use xlink:href="#DejaVuSans-69" x="239.990234"/>
      <use xlink:href="#DejaVuSans-74" x="267.773438"/>
      <use xlink:href="#DejaVuSans-6e" x="306.982422"/>
      <use xlink:href="#DejaVuSans-65" x="370.361328"/>
      <use xlink:href="#DejaVuSans-73" x="431.884766"/>
      <use xlink:href="#DejaVuSans-73" x="483.984375"/>
     </g>
    </g>
   </g>
  </g>
 </g>
 <defs>
  <clipPath id="p97ed24ed7f">
   <rect x="57.6" y="41.472" width="357.12" height="266.112"/>
  </clipPath>
 </defs>
</svg>
