<?xml version="1.0" encoding="utf-8" standalone="no"?>
<!DOCTYPE svg PUBLIC "-//W3C//DTD SVG 1.1//EN"
  "http://www.w3.org/Graphics/SVG/1.1/DTD/svg11.dtd">
<svg xmlns:xlink="http://www.w3.org/1999/xlink" width="432pt" height="432pt" viewBox="0 0 432 432" xmlns="http://www.w3.org/2000/svg" version="1.1">
 <metadata>
  <rdf:RDF xmlns:dc="http://purl.org/dc/elements/1.1/" xmlns:cc="http://creativecommons.org/ns#" xmlns:rdf="http://www.w3.org/1999/02/22-rdf-syntax-ns#">
   <cc:Work>
    <dc:type rdf:resource="http://purl.org/dc/dcmitype/StillImage"/>
    <dc:date>2024-03-11T15:13:56.982319</dc:date>
    <dc:format>image/svg+xml</dc:format>
    <dc:creator>
     <cc:Agent>
      <dc:title>Matplotlib v3.8.1, https://matplotlib.org/</dc:title>
     </cc:Agent>
    </dc:creator>
   </cc:Work>
  </rdf:RDF>
 </metadata>
 <defs>
  <style type="text/css">*{stroke-linejoin: round; stroke-linecap: butt}</style>
 </defs>
 <g id="figure_1">
  <g id="patch_1">
   <path d="M 0 432 
L 432 432 
L 432 0 
L 0 0 
z
" style="fill: #ffffff"/>
  </g>
  <g id="axes_1">
   <g id="patch_2">
    <path d="M 54 384.48 
L 388.8 384.48 
L 388.8 51.84 
L 54 51.84 
z
" style="fill: #ffffff"/>
   </g>
   <g id="patch_3">
    <path d="M 210.24 309.0816 
L 205.776 300.2112 
L 210.237768 300.2112 
L 210.237768 229.248 
L 210.242232 229.248 
L 210.242232 300.2112 
L 214.704 300.2112 
z
" clip-path="url(#p792cf1bc02)" style="fill: #6699ff; stroke: #6699ff; stroke-linejoin: miter"/>
   </g>
   <g id="patch_4">
    <path d="M 165.6 251.424 
L 171.589084 243.490073 
L 173.584448 247.455053 
L 210.239002 229.246017 
L 210.240998 229.249983 
L 173.586444 247.45902 
L 175.581807 251.424 
z
" clip-path="url(#p792cf1bc02)" style="fill: #6699ff; stroke: #6699ff; stroke-linejoin: miter"/>
   </g>
   <g id="patch_5">
    <path d="M 210.24 229.248 
L 209.653848 219.347705 
L 213.75486 221.093942 
L 237.021948 167.154326 
L 237.026052 167.156074 
L 213.758963 221.095689 
L 217.859975 222.841927 
z
" clip-path="url(#p792cf1bc02)" style="fill: #6699ff; stroke: #6699ff; stroke-linejoin: miter"/>
   </g>
   <g id="patch_6">
    <path d="M 187.92 362.304 
L 187.233231 352.410092 
L 191.351786 354.115086 
L 210.23794 309.080747 
L 210.24206 309.082453 
L 191.355906 354.116791 
L 195.474462 355.821785 
z
" clip-path="url(#p792cf1bc02)" style="fill: #6699ff; stroke: #6699ff; stroke-linejoin: miter"/>
   </g>
   <g id="patch_7">
    <path d="M 277.2 229.248 
L 277.2 219.330591 
L 281.190727 221.313081 
L 299.518004 184.895008 
L 299.521996 184.896992 
L 281.194719 221.315065 
L 285.185446 223.297555 
z
" clip-path="url(#p792cf1bc02)" style="fill: #6699ff; stroke: #6699ff; stroke-linejoin: miter"/>
   </g>
   <g id="patch_8">
    <path d="M 344.16 295.776 
L 335.232 300.2112 
L 335.232 295.778218 
L 299.52 295.778218 
L 299.52 295.773782 
L 335.232 295.773782 
L 335.232 291.3408 
z
" clip-path="url(#p792cf1bc02)" style="fill: #6699ff; stroke: #6699ff; stroke-linejoin: miter"/>
   </g>
   <g id="patch_9">
    <path d="M 143.28 207.072 
L 143.28 216.989409 
L 139.289273 215.006919 
L 120.961996 251.424992 
L 120.958004 251.423008 
L 139.285281 215.004935 
L 135.294554 213.022445 
z
" clip-path="url(#p792cf1bc02)" style="fill: #6699ff; stroke: #6699ff; stroke-linejoin: miter"/>
   </g>
   <g id="patch_10">
    <path d="M 187.92 273.6 
L 178.450426 270.46384 
L 181.605372 267.329248 
L 165.598422 251.425568 
L 165.601578 251.422432 
L 181.608529 267.326112 
L 184.763475 264.19152 
z
" clip-path="url(#p792cf1bc02)" style="fill: #6699ff; stroke: #6699ff; stroke-linejoin: miter"/>
   </g>
   <g id="patch_11">
    <path d="M 120.96 118.368 
L 128.945446 124.318445 
L 124.954719 126.300935 
L 143.281996 162.719008 
L 143.278004 162.720992 
L 124.950727 126.302919 
L 120.96 128.285409 
z
" clip-path="url(#p792cf1bc02)" style="fill: #6699ff; stroke: #6699ff; stroke-linejoin: miter"/>
   </g>
   <g id="patch_12">
    <path d="M 143.28 162.72 
L 138.525833 171.440298 
L 135.967177 167.808657 
L 98.64128 193.768217 
L 98.63872 193.764583 
L 135.964617 167.805024 
L 133.405962 164.173383 
z
" clip-path="url(#p792cf1bc02)" style="fill: #6699ff; stroke: #6699ff; stroke-linejoin: miter"/>
   </g>
   <g id="patch_13">
    <path d="M 237.024 167.1552 
L 241.286295 158.187397 
L 244.042871 161.673132 
L 299.518621 118.366256 
L 299.521379 118.369744 
L 244.045629 161.676619 
L 246.802206 165.162355 
z
" clip-path="url(#p792cf1bc02)" style="fill: #6699ff; stroke: #6699ff; stroke-linejoin: miter"/>
   </g>
   <g id="patch_14">
    <path d="M 254.88 96.192 
L 247.821796 103.204667 
L 246.410861 98.999171 
L 187.920706 118.370104 
L 187.919294 118.365896 
L 246.40945 98.994963 
L 244.998515 94.789467 
z
" clip-path="url(#p792cf1bc02)" style="fill: #6699ff; stroke: #6699ff; stroke-linejoin: miter"/>
   </g>
   <g id="patch_15">
    <path d="M 187.92 118.368 
L 177.938193 118.368 
L 179.933556 114.40302 
L 143.279002 96.193983 
L 143.280998 96.190017 
L 179.935552 114.399053 
L 181.930916 110.434073 
z
" clip-path="url(#p792cf1bc02)" style="fill: #6699ff; stroke: #6699ff; stroke-linejoin: miter"/>
   </g>
   <g id="patch_16">
    <path d="M 210.24 229.248 
L 219.168 224.8128 
L 219.168 229.245782 
L 277.2 229.245782 
L 277.2 229.250218 
L 219.168 229.250218 
L 219.168 233.6832 
z
" clip-path="url(#p792cf1bc02)" style="fill: #6699ff; stroke: #6699ff; stroke-linejoin: miter"/>
   </g>
   <g id="patch_17">
    <path d="M 254.88 295.776 
L 244.998515 297.178533 
L 246.40945 292.973037 
L 187.919294 273.602104 
L 187.920706 273.597896 
L 246.410861 292.968829 
L 247.821796 288.763333 
z
" clip-path="url(#p792cf1bc02)" style="fill: #6699ff; stroke: #6699ff; stroke-linejoin: miter"/>
   </g>
   <g id="patch_18">
    <path d="M 98.64 295.776 
L 106.625446 301.726445 
L 102.634719 303.708935 
L 120.961996 340.127008 
L 120.958004 340.128992 
L 102.630727 303.710919 
L 98.64 305.693409 
z
" clip-path="url(#p792cf1bc02)" style="fill: #6699ff; stroke: #6699ff; stroke-linejoin: miter"/>
   </g>
   <g id="patch_19">
    <path d="M 120.96 340.128 
L 130.841485 338.725467 
L 129.43055 342.930963 
L 187.920706 362.301896 
L 187.919294 362.306104 
L 129.429139 342.935171 
L 128.018204 347.140667 
z
" clip-path="url(#p792cf1bc02)" style="fill: #6699ff; stroke: #6699ff; stroke-linejoin: miter"/>
   </g>
   <g id="patch_20">
    <path d="M 76.32 251.424 
L 84.305446 257.374445 
L 80.314719 259.356935 
L 98.641996 295.775008 
L 98.638004 295.776992 
L 80.310727 259.358919 
L 76.32 261.341409 
z
" clip-path="url(#p792cf1bc02)" style="fill: #6699ff; stroke: #6699ff; stroke-linejoin: miter"/>
   </g>
   <g id="patch_21">
    <path d="M 120.96 251.424 
L 112.032 255.8592 
L 112.032 251.426218 
L 76.32 251.426218 
L 76.32 251.421782 
L 112.032 251.421782 
L 112.032 246.9888 
z
" clip-path="url(#p792cf1bc02)" style="fill: #6699ff; stroke: #6699ff; stroke-linejoin: miter"/>
   </g>
   <g id="patch_22">
    <path d="M 98.64 193.7664 
L 108.474194 192.06714 
L 107.192114 196.313167 
L 143.280641 207.069876 
L 143.279359 207.074124 
L 107.190832 196.317415 
L 105.908752 200.563442 
z
" clip-path="url(#p792cf1bc02)" style="fill: #6699ff; stroke: #6699ff; stroke-linejoin: miter"/>
   </g>
   <g id="patch_23">
    <path d="M 143.28 96.192 
L 140.123475 105.60048 
L 136.968529 102.465888 
L 120.961578 118.369568 
L 120.958422 118.366432 
L 136.965372 102.462752 
L 133.810426 99.32816 
z
" clip-path="url(#p792cf1bc02)" style="fill: #6699ff; stroke: #6699ff; stroke-linejoin: miter"/>
   </g>
   <g id="patch_24">
    <path d="M 299.52 118.368 
L 289.538193 118.368 
L 291.533556 114.40302 
L 254.879002 96.193983 
L 254.880998 96.190017 
L 291.535552 114.399053 
L 293.530916 110.434073 
z
" clip-path="url(#p792cf1bc02)" style="fill: #6699ff; stroke: #6699ff; stroke-linejoin: miter"/>
   </g>
   <g id="patch_25">
    <path d="M 254.88 340.128 
L 250.416 331.2576 
L 254.877768 331.2576 
L 254.877768 295.776 
L 254.882232 295.776 
L 254.882232 331.2576 
L 259.344 331.2576 
z
" clip-path="url(#p792cf1bc02)" style="fill: #6699ff; stroke: #6699ff; stroke-linejoin: miter"/>
   </g>
   <g id="patch_26">
    <path d="M 299.52 362.304 
L 289.538193 362.304 
L 291.533556 358.33902 
L 254.879002 340.129983 
L 254.880998 340.126017 
L 291.535552 358.335053 
L 293.530916 354.370073 
z
" clip-path="url(#p792cf1bc02)" style="fill: #6699ff; stroke: #6699ff; stroke-linejoin: miter"/>
   </g>
   <g id="patch_27">
    <path d="M 299.52 295.776 
L 303.984 304.6464 
L 299.522232 304.6464 
L 299.522232 362.304 
L 299.517768 362.304 
L 299.517768 304.6464 
L 295.056 304.6464 
z
" clip-path="url(#p792cf1bc02)" style="fill: #6699ff; stroke: #6699ff; stroke-linejoin: miter"/>
   </g>
   <g id="patch_28">
    <path d="M 299.52 184.896 
L 308.989574 188.03216 
L 305.834628 191.166752 
L 344.161578 229.246432 
L 344.158422 229.249568 
L 305.831471 191.169888 
L 302.676525 194.30448 
z
" clip-path="url(#p792cf1bc02)" style="fill: #6699ff; stroke: #6699ff; stroke-linejoin: miter"/>
   </g>
   <g id="patch_29">
    <path d="M 344.16 229.248 
L 348.624 238.1184 
L 344.162232 238.1184 
L 344.162232 295.776 
L 344.157768 295.776 
L 344.157768 238.1184 
L 339.696 238.1184 
z
" clip-path="url(#p792cf1bc02)" style="fill: #6699ff; stroke: #6699ff; stroke-linejoin: miter"/>
   </g>
   <g id="matplotlib.axis_1">
    <g id="xtick_1">
     <g id="line2d_1">
      <path d="M 54 384.48 
L 54 51.84 
" clip-path="url(#p792cf1bc02)" style="fill: none; stroke: #b0b0b0; stroke-width: 0.8; stroke-linecap: square"/>
     </g>
     <g id="line2d_2">
      <defs>
       <path id="me036d5299b" d="M 0 0 
L 0 3.5 
" style="stroke: #000000; stroke-width: 0.8"/>
      </defs>
      <g>
       <use xlink:href="#me036d5299b" x="54" y="384.48" style="stroke: #000000; stroke-width: 0.8"/>
      </g>
     </g>
     <g id="text_1">
      <!-- 0 -->
      <g transform="translate(50.81875 399.078438) scale(0.1 -0.1)">
       <defs>
        <path id="DejaVuSans-30" d="M 2034 4250 
Q 1547 4250 1301 3770 
Q 1056 3291 1056 2328 
Q 1056 1369 1301 889 
Q 1547 409 2034 409 
Q 2525 409 2770 889 
Q 3016 1369 3016 2328 
Q 3016 3291 2770 3770 
Q 2525 4250 2034 4250 
z
M 2034 4750 
Q 2819 4750 3233 4129 
Q 3647 3509 3647 2328 
Q 3647 1150 3233 529 
Q 2819 -91 2034 -91 
Q 1250 -91 836 529 
Q 422 1150 422 2328 
Q 422 3509 836 4129 
Q 1250 4750 2034 4750 
z
" transform="scale(0.015625)"/>
       </defs>
       <use xlink:href="#DejaVuSans-30"/>
      </g>
     </g>
    </g>
    <g id="xtick_2">
     <g id="line2d_3">
      <path d="M 98.64 384.48 
L 98.64 51.84 
" clip-path="url(#p792cf1bc02)" style="fill: none; stroke: #b0b0b0; stroke-width: 0.8; stroke-linecap: square"/>
     </g>
     <g id="line2d_4">
      <g>
       <use xlink:href="#me036d5299b" x="98.64" y="384.48" style="stroke: #000000; stroke-width: 0.8"/>
      </g>
     </g>
     <g id="text_2">
      <!-- 10 -->
      <g transform="translate(92.2775 399.078438) scale(0.1 -0.1)">
       <defs>
        <path id="DejaVuSans-31" d="M 794 531 
L 1825 531 
L 1825 4091 
L 703 3866 
L 703 4441 
L 1819 4666 
L 2450 4666 
L 2450 531 
L 3481 531 
L 3481 0 
L 794 0 
L 794 531 
z
" transform="scale(0.015625)"/>
       </defs>
       <use xlink:href="#DejaVuSans-31"/>
       <use xlink:href="#DejaVuSans-30" x="63.623047"/>
      </g>
     </g>
    </g>
    <g id="xtick_3">
     <g id="line2d_5">
      <path d="M 143.28 384.48 
L 143.28 51.84 
" clip-path="url(#p792cf1bc02)" style="fill: none; stroke: #b0b0b0; stroke-width: 0.8; stroke-linecap: square"/>
     </g>
     <g id="line2d_6">
      <g>
       <use xlink:href="#me036d5299b" x="143.28" y="384.48" style="stroke: #000000; stroke-width: 0.8"/>
      </g>
     </g>
     <g id="text_3">
      <!-- 20 -->
      <g transform="translate(136.9175 399.078438) scale(0.1 -0.1)">
       <defs>
        <path id="DejaVuSans-32" d="M 1228 531 
L 3431 531 
L 3431 0 
L 469 0 
L 469 531 
Q 828 903 1448 1529 
Q 2069 2156 2228 2338 
Q 2531 2678 2651 2914 
Q 2772 3150 2772 3378 
Q 2772 3750 2511 3984 
Q 2250 4219 1831 4219 
Q 1534 4219 1204 4116 
Q 875 4013 500 3803 
L 500 4441 
Q 881 4594 1212 4672 
Q 1544 4750 1819 4750 
Q 2544 4750 2975 4387 
Q 3406 4025 3406 3419 
Q 3406 3131 3298 2873 
Q 3191 2616 2906 2266 
Q 2828 2175 2409 1742 
Q 1991 1309 1228 531 
z
" transform="scale(0.015625)"/>
       </defs>
       <use xlink:href="#DejaVuSans-32"/>
       <use xlink:href="#DejaVuSans-30" x="63.623047"/>
      </g>
     </g>
    </g>
    <g id="xtick_4">
     <g id="line2d_7">
      <path d="M 187.92 384.48 
L 187.92 51.84 
" clip-path="url(#p792cf1bc02)" style="fill: none; stroke: #b0b0b0; stroke-width: 0.8; stroke-linecap: square"/>
     </g>
     <g id="line2d_8">
      <g>
       <use xlink:href="#me036d5299b" x="187.92" y="384.48" style="stroke: #000000; stroke-width: 0.8"/>
      </g>
     </g>
     <g id="text_4">
      <!-- 30 -->
      <g transform="translate(181.5575 399.078438) scale(0.1 -0.1)">
       <defs>
        <path id="DejaVuSans-33" d="M 2597 2516 
Q 3050 2419 3304 2112 
Q 3559 1806 3559 1356 
Q 3559 666 3084 287 
Q 2609 -91 1734 -91 
Q 1441 -91 1130 -33 
Q 819 25 488 141 
L 488 750 
Q 750 597 1062 519 
Q 1375 441 1716 441 
Q 2309 441 2620 675 
Q 2931 909 2931 1356 
Q 2931 1769 2642 2001 
Q 2353 2234 1838 2234 
L 1294 2234 
L 1294 2753 
L 1863 2753 
Q 2328 2753 2575 2939 
Q 2822 3125 2822 3475 
Q 2822 3834 2567 4026 
Q 2313 4219 1838 4219 
Q 1578 4219 1281 4162 
Q 984 4106 628 3988 
L 628 4550 
Q 988 4650 1302 4700 
Q 1616 4750 1894 4750 
Q 2613 4750 3031 4423 
Q 3450 4097 3450 3541 
Q 3450 3153 3228 2886 
Q 3006 2619 2597 2516 
z
" transform="scale(0.015625)"/>
       </defs>
       <use xlink:href="#DejaVuSans-33"/>
       <use xlink:href="#DejaVuSans-30" x="63.623047"/>
      </g>
     </g>
    </g>
    <g id="xtick_5">
     <g id="line2d_9">
      <path d="M 232.56 384.48 
L 232.56 51.84 
" clip-path="url(#p792cf1bc02)" style="fill: none; stroke: #b0b0b0; stroke-width: 0.8; stroke-linecap: square"/>
     </g>
     <g id="line2d_10">
      <g>
       <use xlink:href="#me036d5299b" x="232.56" y="384.48" style="stroke: #000000; stroke-width: 0.8"/>
      </g>
     </g>
     <g id="text_5">
      <!-- 40 -->
      <g transform="translate(226.1975 399.078438) scale(0.1 -0.1)">
       <defs>
        <path id="DejaVuSans-34" d="M 2419 4116 
L 825 1625 
L 2419 1625 
L 2419 4116 
z
M 2253 4666 
L 3047 4666 
L 3047 1625 
L 3713 1625 
L 3713 1100 
L 3047 1100 
L 3047 0 
L 2419 0 
L 2419 1100 
L 313 1100 
L 313 1709 
L 2253 4666 
z
" transform="scale(0.015625)"/>
       </defs>
       <use xlink:href="#DejaVuSans-34"/>
       <use xlink:href="#DejaVuSans-30" x="63.623047"/>
      </g>
     </g>
    </g>
    <g id="xtick_6">
     <g id="line2d_11">
      <path d="M 277.2 384.48 
L 277.2 51.84 
" clip-path="url(#p792cf1bc02)" style="fill: none; stroke: #b0b0b0; stroke-width: 0.8; stroke-linecap: square"/>
     </g>
     <g id="line2d_12">
      <g>
       <use xlink:href="#me036d5299b" x="277.2" y="384.48" style="stroke: #000000; stroke-width: 0.8"/>
      </g>
     </g>
     <g id="text_6">
      <!-- 50 -->
      <g transform="translate(270.8375 399.078438) scale(0.1 -0.1)">
       <defs>
        <path id="DejaVuSans-35" d="M 691 4666 
L 3169 4666 
L 3169 4134 
L 1269 4134 
L 1269 2991 
Q 1406 3038 1543 3061 
Q 1681 3084 1819 3084 
Q 2600 3084 3056 2656 
Q 3513 2228 3513 1497 
Q 3513 744 3044 326 
Q 2575 -91 1722 -91 
Q 1428 -91 1123 -41 
Q 819 9 494 109 
L 494 744 
Q 775 591 1075 516 
Q 1375 441 1709 441 
Q 2250 441 2565 725 
Q 2881 1009 2881 1497 
Q 2881 1984 2565 2268 
Q 2250 2553 1709 2553 
Q 1456 2553 1204 2497 
Q 953 2441 691 2322 
L 691 4666 
z
" transform="scale(0.015625)"/>
       </defs>
       <use xlink:href="#DejaVuSans-35"/>
       <use xlink:href="#DejaVuSans-30" x="63.623047"/>
      </g>
     </g>
    </g>
    <g id="xtick_7">
     <g id="line2d_13">
      <path d="M 321.84 384.48 
L 321.84 51.84 
" clip-path="url(#p792cf1bc02)" style="fill: none; stroke: #b0b0b0; stroke-width: 0.8; stroke-linecap: square"/>
     </g>
     <g id="line2d_14">
      <g>
       <use xlink:href="#me036d5299b" x="321.84" y="384.48" style="stroke: #000000; stroke-width: 0.8"/>
      </g>
     </g>
     <g id="text_7">
      <!-- 60 -->
      <g transform="translate(315.4775 399.078438) scale(0.1 -0.1)">
       <defs>
        <path id="DejaVuSans-36" d="M 2113 2584 
Q 1688 2584 1439 2293 
Q 1191 2003 1191 1497 
Q 1191 994 1439 701 
Q 1688 409 2113 409 
Q 2538 409 2786 701 
Q 3034 994 3034 1497 
Q 3034 2003 2786 2293 
Q 2538 2584 2113 2584 
z
M 3366 4563 
L 3366 3988 
Q 3128 4100 2886 4159 
Q 2644 4219 2406 4219 
Q 1781 4219 1451 3797 
Q 1122 3375 1075 2522 
Q 1259 2794 1537 2939 
Q 1816 3084 2150 3084 
Q 2853 3084 3261 2657 
Q 3669 2231 3669 1497 
Q 3669 778 3244 343 
Q 2819 -91 2113 -91 
Q 1303 -91 875 529 
Q 447 1150 447 2328 
Q 447 3434 972 4092 
Q 1497 4750 2381 4750 
Q 2619 4750 2861 4703 
Q 3103 4656 3366 4563 
z
" transform="scale(0.015625)"/>
       </defs>
       <use xlink:href="#DejaVuSans-36"/>
       <use xlink:href="#DejaVuSans-30" x="63.623047"/>
      </g>
     </g>
    </g>
    <g id="xtick_8">
     <g id="line2d_15">
      <path d="M 366.48 384.48 
L 366.48 51.84 
" clip-path="url(#p792cf1bc02)" style="fill: none; stroke: #b0b0b0; stroke-width: 0.8; stroke-linecap: square"/>
     </g>
     <g id="line2d_16">
      <g>
       <use xlink:href="#me036d5299b" x="366.48" y="384.48" style="stroke: #000000; stroke-width: 0.8"/>
      </g>
     </g>
     <g id="text_8">
      <!-- 70 -->
      <g transform="translate(360.1175 399.078438) scale(0.1 -0.1)">
       <defs>
        <path id="DejaVuSans-37" d="M 525 4666 
L 3525 4666 
L 3525 4397 
L 1831 0 
L 1172 0 
L 2766 4134 
L 525 4134 
L 525 4666 
z
" transform="scale(0.015625)"/>
       </defs>
       <use xlink:href="#DejaVuSans-37"/>
       <use xlink:href="#DejaVuSans-30" x="63.623047"/>
      </g>
     </g>
    </g>
    <g id="text_9">
     <!-- X Coordinate -->
     <g transform="translate(188.975 412.756563) scale(0.1 -0.1)">
      <defs>
       <path id="DejaVuSans-58" d="M 403 4666 
L 1081 4666 
L 2241 2931 
L 3406 4666 
L 4084 4666 
L 2584 2425 
L 4184 0 
L 3506 0 
L 2194 1984 
L 872 0 
L 191 0 
L 1856 2491 
L 403 4666 
z
" transform="scale(0.015625)"/>
       <path id="DejaVuSans-20" transform="scale(0.015625)"/>
       <path id="DejaVuSans-43" d="M 4122 4306 
L 4122 3641 
Q 3803 3938 3442 4084 
Q 3081 4231 2675 4231 
Q 1875 4231 1450 3742 
Q 1025 3253 1025 2328 
Q 1025 1406 1450 917 
Q 1875 428 2675 428 
Q 3081 428 3442 575 
Q 3803 722 4122 1019 
L 4122 359 
Q 3791 134 3420 21 
Q 3050 -91 2638 -91 
Q 1578 -91 968 557 
Q 359 1206 359 2328 
Q 359 3453 968 4101 
Q 1578 4750 2638 4750 
Q 3056 4750 3426 4639 
Q 3797 4528 4122 4306 
z
" transform="scale(0.015625)"/>
       <path id="DejaVuSans-6f" d="M 1959 3097 
Q 1497 3097 1228 2736 
Q 959 2375 959 1747 
Q 959 1119 1226 758 
Q 1494 397 1959 397 
Q 2419 397 2687 759 
Q 2956 1122 2956 1747 
Q 2956 2369 2687 2733 
Q 2419 3097 1959 3097 
z
M 1959 3584 
Q 2709 3584 3137 3096 
Q 3566 2609 3566 1747 
Q 3566 888 3137 398 
Q 2709 -91 1959 -91 
Q 1206 -91 779 398 
Q 353 888 353 1747 
Q 353 2609 779 3096 
Q 1206 3584 1959 3584 
z
" transform="scale(0.015625)"/>
       <path id="DejaVuSans-72" d="M 2631 2963 
Q 2534 3019 2420 3045 
Q 2306 3072 2169 3072 
Q 1681 3072 1420 2755 
Q 1159 2438 1159 1844 
L 1159 0 
L 581 0 
L 581 3500 
L 1159 3500 
L 1159 2956 
Q 1341 3275 1631 3429 
Q 1922 3584 2338 3584 
Q 2397 3584 2469 3576 
Q 2541 3569 2628 3553 
L 2631 2963 
z
" transform="scale(0.015625)"/>
       <path id="DejaVuSans-64" d="M 2906 2969 
L 2906 4863 
L 3481 4863 
L 3481 0 
L 2906 0 
L 2906 525 
Q 2725 213 2448 61 
Q 2172 -91 1784 -91 
Q 1150 -91 751 415 
Q 353 922 353 1747 
Q 353 2572 751 3078 
Q 1150 3584 1784 3584 
Q 2172 3584 2448 3432 
Q 2725 3281 2906 2969 
z
M 947 1747 
Q 947 1113 1208 752 
Q 1469 391 1925 391 
Q 2381 391 2643 752 
Q 2906 1113 2906 1747 
Q 2906 2381 2643 2742 
Q 2381 3103 1925 3103 
Q 1469 3103 1208 2742 
Q 947 2381 947 1747 
z
" transform="scale(0.015625)"/>
       <path id="DejaVuSans-69" d="M 603 3500 
L 1178 3500 
L 1178 0 
L 603 0 
L 603 3500 
z
M 603 4863 
L 1178 4863 
L 1178 4134 
L 603 4134 
L 603 4863 
z
" transform="scale(0.015625)"/>
       <path id="DejaVuSans-6e" d="M 3513 2113 
L 3513 0 
L 2938 0 
L 2938 2094 
Q 2938 2591 2744 2837 
Q 2550 3084 2163 3084 
Q 1697 3084 1428 2787 
Q 1159 2491 1159 1978 
L 1159 0 
L 581 0 
L 581 3500 
L 1159 3500 
L 1159 2956 
Q 1366 3272 1645 3428 
Q 1925 3584 2291 3584 
Q 2894 3584 3203 3211 
Q 3513 2838 3513 2113 
z
" transform="scale(0.015625)"/>
       <path id="DejaVuSans-61" d="M 2194 1759 
Q 1497 1759 1228 1600 
Q 959 1441 959 1056 
Q 959 750 1161 570 
Q 1363 391 1709 391 
Q 2188 391 2477 730 
Q 2766 1069 2766 1631 
L 2766 1759 
L 2194 1759 
z
M 3341 1997 
L 3341 0 
L 2766 0 
L 2766 531 
Q 2569 213 2275 61 
Q 1981 -91 1556 -91 
Q 1019 -91 701 211 
Q 384 513 384 1019 
Q 384 1609 779 1909 
Q 1175 2209 1959 2209 
L 2766 2209 
L 2766 2266 
Q 2766 2663 2505 2880 
Q 2244 3097 1772 3097 
Q 1472 3097 1187 3025 
Q 903 2953 641 2809 
L 641 3341 
Q 956 3463 1253 3523 
Q 1550 3584 1831 3584 
Q 2591 3584 2966 3190 
Q 3341 2797 3341 1997 
z
" transform="scale(0.015625)"/>
       <path id="DejaVuSans-74" d="M 1172 4494 
L 1172 3500 
L 2356 3500 
L 2356 3053 
L 1172 3053 
L 1172 1153 
Q 1172 725 1289 603 
Q 1406 481 1766 481 
L 2356 481 
L 2356 0 
L 1766 0 
Q 1100 0 847 248 
Q 594 497 594 1153 
L 594 3053 
L 172 3053 
L 172 3500 
L 594 3500 
L 594 4494 
L 1172 4494 
z
" transform="scale(0.015625)"/>
       <path id="DejaVuSans-65" d="M 3597 1894 
L 3597 1613 
L 953 1613 
Q 991 1019 1311 708 
Q 1631 397 2203 397 
Q 2534 397 2845 478 
Q 3156 559 3463 722 
L 3463 178 
Q 3153 47 2828 -22 
Q 2503 -91 2169 -91 
Q 1331 -91 842 396 
Q 353 884 353 1716 
Q 353 2575 817 3079 
Q 1281 3584 2069 3584 
Q 2775 3584 3186 3129 
Q 3597 2675 3597 1894 
z
M 3022 2063 
Q 3016 2534 2758 2815 
Q 2500 3097 2075 3097 
Q 1594 3097 1305 2825 
Q 1016 2553 972 2059 
L 3022 2063 
z
" transform="scale(0.015625)"/>
      </defs>
      <use xlink:href="#DejaVuSans-58"/>
      <use xlink:href="#DejaVuSans-20" x="68.505859"/>
      <use xlink:href="#DejaVuSans-43" x="100.292969"/>
      <use xlink:href="#DejaVuSans-6f" x="170.117188"/>
      <use xlink:href="#DejaVuSans-6f" x="231.298828"/>
      <use xlink:href="#DejaVuSans-72" x="292.480469"/>
      <use xlink:href="#DejaVuSans-64" x="331.84375"/>
      <use xlink:href="#DejaVuSans-69" x="395.320312"/>
      <use xlink:href="#DejaVuSans-6e" x="423.103516"/>
      <use xlink:href="#DejaVuSans-61" x="486.482422"/>
      <use xlink:href="#DejaVuSans-74" x="547.761719"/>
      <use xlink:href="#DejaVuSans-65" x="586.970703"/>
     </g>
    </g>
   </g>
   <g id="matplotlib.axis_2">
    <g id="ytick_1">
     <g id="line2d_17">
      <path d="M 54 384.48 
L 388.8 384.48 
" clip-path="url(#p792cf1bc02)" style="fill: none; stroke: #b0b0b0; stroke-width: 0.8; stroke-linecap: square"/>
     </g>
     <g id="line2d_18">
      <defs>
       <path id="m1746338997" d="M 0 0 
L -3.5 0 
" style="stroke: #000000; stroke-width: 0.8"/>
      </defs>
      <g>
       <use xlink:href="#m1746338997" x="54" y="384.48" style="stroke: #000000; stroke-width: 0.8"/>
      </g>
     </g>
     <g id="text_10">
      <!-- 0 -->
      <g transform="translate(40.6375 388.279219) scale(0.1 -0.1)">
       <use xlink:href="#DejaVuSans-30"/>
      </g>
     </g>
    </g>
    <g id="ytick_2">
     <g id="line2d_19">
      <path d="M 54 340.128 
L 388.8 340.128 
" clip-path="url(#p792cf1bc02)" style="fill: none; stroke: #b0b0b0; stroke-width: 0.8; stroke-linecap: square"/>
     </g>
     <g id="line2d_20">
      <g>
       <use xlink:href="#m1746338997" x="54" y="340.128" style="stroke: #000000; stroke-width: 0.8"/>
      </g>
     </g>
     <g id="text_11">
      <!-- 10 -->
      <g transform="translate(34.275 343.927219) scale(0.1 -0.1)">
       <use xlink:href="#DejaVuSans-31"/>
       <use xlink:href="#DejaVuSans-30" x="63.623047"/>
      </g>
     </g>
    </g>
    <g id="ytick_3">
     <g id="line2d_21">
      <path d="M 54 295.776 
L 388.8 295.776 
" clip-path="url(#p792cf1bc02)" style="fill: none; stroke: #b0b0b0; stroke-width: 0.8; stroke-linecap: square"/>
     </g>
     <g id="line2d_22">
      <g>
       <use xlink:href="#m1746338997" x="54" y="295.776" style="stroke: #000000; stroke-width: 0.8"/>
      </g>
     </g>
     <g id="text_12">
      <!-- 20 -->
      <g transform="translate(34.275 299.575219) scale(0.1 -0.1)">
       <use xlink:href="#DejaVuSans-32"/>
       <use xlink:href="#DejaVuSans-30" x="63.623047"/>
      </g>
     </g>
    </g>
    <g id="ytick_4">
     <g id="line2d_23">
      <path d="M 54 251.424 
L 388.8 251.424 
" clip-path="url(#p792cf1bc02)" style="fill: none; stroke: #b0b0b0; stroke-width: 0.8; stroke-linecap: square"/>
     </g>
     <g id="line2d_24">
      <g>
       <use xlink:href="#m1746338997" x="54" y="251.424" style="stroke: #000000; stroke-width: 0.8"/>
      </g>
     </g>
     <g id="text_13">
      <!-- 30 -->
      <g transform="translate(34.275 255.223219) scale(0.1 -0.1)">
       <use xlink:href="#DejaVuSans-33"/>
       <use xlink:href="#DejaVuSans-30" x="63.623047"/>
      </g>
     </g>
    </g>
    <g id="ytick_5">
     <g id="line2d_25">
      <path d="M 54 207.072 
L 388.8 207.072 
" clip-path="url(#p792cf1bc02)" style="fill: none; stroke: #b0b0b0; stroke-width: 0.8; stroke-linecap: square"/>
     </g>
     <g id="line2d_26">
      <g>
       <use xlink:href="#m1746338997" x="54" y="207.072" style="stroke: #000000; stroke-width: 0.8"/>
      </g>
     </g>
     <g id="text_14">
      <!-- 40 -->
      <g transform="translate(34.275 210.871219) scale(0.1 -0.1)">
       <use xlink:href="#DejaVuSans-34"/>
       <use xlink:href="#DejaVuSans-30" x="63.623047"/>
      </g>
     </g>
    </g>
    <g id="ytick_6">
     <g id="line2d_27">
      <path d="M 54 162.72 
L 388.8 162.72 
" clip-path="url(#p792cf1bc02)" style="fill: none; stroke: #b0b0b0; stroke-width: 0.8; stroke-linecap: square"/>
     </g>
     <g id="line2d_28">
      <g>
       <use xlink:href="#m1746338997" x="54" y="162.72" style="stroke: #000000; stroke-width: 0.8"/>
      </g>
     </g>
     <g id="text_15">
      <!-- 50 -->
      <g transform="translate(34.275 166.519219) scale(0.1 -0.1)">
       <use xlink:href="#DejaVuSans-35"/>
       <use xlink:href="#DejaVuSans-30" x="63.623047"/>
      </g>
     </g>
    </g>
    <g id="ytick_7">
     <g id="line2d_29">
      <path d="M 54 118.368 
L 388.8 118.368 
" clip-path="url(#p792cf1bc02)" style="fill: none; stroke: #b0b0b0; stroke-width: 0.8; stroke-linecap: square"/>
     </g>
     <g id="line2d_30">
      <g>
       <use xlink:href="#m1746338997" x="54" y="118.368" style="stroke: #000000; stroke-width: 0.8"/>
      </g>
     </g>
     <g id="text_16">
      <!-- 60 -->
      <g transform="translate(34.275 122.167219) scale(0.1 -0.1)">
       <use xlink:href="#DejaVuSans-36"/>
       <use xlink:href="#DejaVuSans-30" x="63.623047"/>
      </g>
     </g>
    </g>
    <g id="ytick_8">
     <g id="line2d_31">
      <path d="M 54 74.016 
L 388.8 74.016 
" clip-path="url(#p792cf1bc02)" style="fill: none; stroke: #b0b0b0; stroke-width: 0.8; stroke-linecap: square"/>
     </g>
     <g id="line2d_32">
      <g>
       <use xlink:href="#m1746338997" x="54" y="74.016" style="stroke: #000000; stroke-width: 0.8"/>
      </g>
     </g>
     <g id="text_17">
      <!-- 70 -->
      <g transform="translate(34.275 77.815219) scale(0.1 -0.1)">
       <use xlink:href="#DejaVuSans-37"/>
       <use xlink:href="#DejaVuSans-30" x="63.623047"/>
      </g>
     </g>
    </g>
    <g id="text_18">
     <!-- Y Coordinate -->
     <g transform="translate(28.195312 250.213906) rotate(-90) scale(0.1 -0.1)">
      <defs>
       <path id="DejaVuSans-59" d="M -13 4666 
L 666 4666 
L 1959 2747 
L 3244 4666 
L 3922 4666 
L 2272 2222 
L 2272 0 
L 1638 0 
L 1638 2222 
L -13 4666 
z
" transform="scale(0.015625)"/>
      </defs>
      <use xlink:href="#DejaVuSans-59"/>
      <use xlink:href="#DejaVuSans-20" x="61.083984"/>
      <use xlink:href="#DejaVuSans-43" x="92.871094"/>
      <use xlink:href="#DejaVuSans-6f" x="162.695312"/>
      <use xlink:href="#DejaVuSans-6f" x="223.876953"/>
      <use xlink:href="#DejaVuSans-72" x="285.058594"/>
      <use xlink:href="#DejaVuSans-64" x="324.421875"/>
      <use xlink:href="#DejaVuSans-69" x="387.898438"/>
      <use xlink:href="#DejaVuSans-6e" x="415.681641"/>
      <use xlink:href="#DejaVuSans-61" x="479.060547"/>
      <use xlink:href="#DejaVuSans-74" x="540.339844"/>
      <use xlink:href="#DejaVuSans-65" x="579.548828"/>
     </g>
    </g>
   </g>
   <g id="line2d_33">
    <defs>
     <path id="m605852881e" d="M 0 2.5 
C 0.663008 2.5 1.29895 2.236584 1.767767 1.767767 
C 2.236584 1.29895 2.5 0.663008 2.5 0 
C 2.5 -0.663008 2.236584 -1.29895 1.767767 -1.767767 
C 1.29895 -2.236584 0.663008 -2.5 0 -2.5 
C -0.663008 -2.5 -1.29895 -2.236584 -1.767767 -1.767767 
C -2.236584 -1.29895 -2.5 -0.663008 -2.5 0 
C -2.5 0.663008 -2.236584 1.29895 -1.767767 1.767767 
C -1.29895 2.236584 -0.663008 2.5 0 2.5 
z
" style="stroke: #0000ff"/>
    </defs>
    <g clip-path="url(#p792cf1bc02)">
     <use xlink:href="#m605852881e" x="210.24" y="229.248" style="fill: #0000ff; stroke: #0000ff"/>
     <use xlink:href="#m605852881e" x="237.024" y="167.1552" style="fill: #0000ff; stroke: #0000ff"/>
     <use xlink:href="#m605852881e" x="210.24" y="309.0816" style="fill: #0000ff; stroke: #0000ff"/>
     <use xlink:href="#m605852881e" x="299.52" y="184.896" style="fill: #0000ff; stroke: #0000ff"/>
     <use xlink:href="#m605852881e" x="299.52" y="295.776" style="fill: #0000ff; stroke: #0000ff"/>
     <use xlink:href="#m605852881e" x="120.96" y="251.424" style="fill: #0000ff; stroke: #0000ff"/>
     <use xlink:href="#m605852881e" x="165.6" y="251.424" style="fill: #0000ff; stroke: #0000ff"/>
     <use xlink:href="#m605852881e" x="143.28" y="162.72" style="fill: #0000ff; stroke: #0000ff"/>
     <use xlink:href="#m605852881e" x="98.64" y="193.7664" style="fill: #0000ff; stroke: #0000ff"/>
     <use xlink:href="#m605852881e" x="299.52" y="118.368" style="fill: #0000ff; stroke: #0000ff"/>
     <use xlink:href="#m605852881e" x="187.92" y="118.368" style="fill: #0000ff; stroke: #0000ff"/>
     <use xlink:href="#m605852881e" x="143.28" y="96.192" style="fill: #0000ff; stroke: #0000ff"/>
     <use xlink:href="#m605852881e" x="277.2" y="229.248" style="fill: #0000ff; stroke: #0000ff"/>
     <use xlink:href="#m605852881e" x="187.92" y="273.6" style="fill: #0000ff; stroke: #0000ff"/>
     <use xlink:href="#m605852881e" x="120.96" y="340.128" style="fill: #0000ff; stroke: #0000ff"/>
     <use xlink:href="#m605852881e" x="187.92" y="362.304" style="fill: #0000ff; stroke: #0000ff"/>
     <use xlink:href="#m605852881e" x="98.64" y="295.776" style="fill: #0000ff; stroke: #0000ff"/>
     <use xlink:href="#m605852881e" x="76.32" y="251.424" style="fill: #0000ff; stroke: #0000ff"/>
     <use xlink:href="#m605852881e" x="143.28" y="207.072" style="fill: #0000ff; stroke: #0000ff"/>
     <use xlink:href="#m605852881e" x="120.96" y="118.368" style="fill: #0000ff; stroke: #0000ff"/>
     <use xlink:href="#m605852881e" x="254.88" y="96.192" style="fill: #0000ff; stroke: #0000ff"/>
     <use xlink:href="#m605852881e" x="254.88" y="295.776" style="fill: #0000ff; stroke: #0000ff"/>
     <use xlink:href="#m605852881e" x="254.88" y="340.128" style="fill: #0000ff; stroke: #0000ff"/>
     <use xlink:href="#m605852881e" x="299.52" y="362.304" style="fill: #0000ff; stroke: #0000ff"/>
     <use xlink:href="#m605852881e" x="344.16" y="229.248" style="fill: #0000ff; stroke: #0000ff"/>
     <use xlink:href="#m605852881e" x="344.16" y="295.776" style="fill: #0000ff; stroke: #0000ff"/>
    </g>
   </g>
   <g id="line2d_34">
    <defs>
     <path id="mb9eb3d980c" d="M 0 5 
C 1.326016 5 2.597899 4.473168 3.535534 3.535534 
C 4.473168 2.597899 5 1.326016 5 0 
C 5 -1.326016 4.473168 -2.597899 3.535534 -3.535534 
C 2.597899 -4.473168 1.326016 -5 0 -5 
C -1.326016 -5 -2.597899 -4.473168 -3.535534 -3.535534 
C -4.473168 -2.597899 -5 -1.326016 -5 0 
C -5 1.326016 -4.473168 2.597899 -3.535534 3.535534 
C -2.597899 4.473168 -1.326016 5 0 5 
z
" style="stroke: #ff0000"/>
    </defs>
    <g clip-path="url(#p792cf1bc02)">
     <use xlink:href="#mb9eb3d980c" x="210.24" y="229.248" style="fill: #ff0000; stroke: #ff0000"/>
    </g>
   </g>
   <g id="patch_30">
    <path d="M 54 384.48 
L 54 51.84 
" style="fill: none; stroke: #000000; stroke-width: 0.8; stroke-linejoin: miter; stroke-linecap: square"/>
   </g>
   <g id="patch_31">
    <path d="M 388.8 384.48 
L 388.8 51.84 
" style="fill: none; stroke: #000000; stroke-width: 0.8; stroke-linejoin: miter; stroke-linecap: square"/>
   </g>
   <g id="patch_32">
    <path d="M 54 384.48 
L 388.8 384.48 
" style="fill: none; stroke: #000000; stroke-width: 0.8; stroke-linejoin: miter; stroke-linecap: square"/>
   </g>
   <g id="patch_33">
    <path d="M 54 51.84 
L 388.8 51.84 
" style="fill: none; stroke: #000000; stroke-width: 0.8; stroke-linejoin: miter; stroke-linecap: square"/>
   </g>
   <g id="legend_1">
    <g id="patch_34">
     <path d="M 407.54 384.48 
L 507.432188 384.48 
Q 509.432188 384.48 509.432188 382.48 
L 509.432188 354.12375 
Q 509.432188 352.12375 507.432188 352.12375 
L 407.54 352.12375 
Q 405.54 352.12375 405.54 354.12375 
L 405.54 382.48 
Q 405.54 384.48 407.54 384.48 
z
" style="fill: #ffffff; opacity: 0.8; stroke: #cccccc; stroke-linejoin: miter"/>
    </g>
    <g id="line2d_35">
     <g>
      <use xlink:href="#m605852881e" x="419.54" y="360.222188" style="fill: #0000ff; stroke: #0000ff"/>
     </g>
    </g>
    <g id="text_19">
     <!-- Data Points -->
     <g transform="translate(437.54 363.722188) scale(0.1 -0.1)">
      <defs>
       <path id="DejaVuSans-44" d="M 1259 4147 
L 1259 519 
L 2022 519 
Q 2988 519 3436 956 
Q 3884 1394 3884 2338 
Q 3884 3275 3436 3711 
Q 2988 4147 2022 4147 
L 1259 4147 
z
M 628 4666 
L 1925 4666 
Q 3281 4666 3915 4102 
Q 4550 3538 4550 2338 
Q 4550 1131 3912 565 
Q 3275 0 1925 0 
L 628 0 
L 628 4666 
z
" transform="scale(0.015625)"/>
       <path id="DejaVuSans-50" d="M 1259 4147 
L 1259 2394 
L 2053 2394 
Q 2494 2394 2734 2622 
Q 2975 2850 2975 3272 
Q 2975 3691 2734 3919 
Q 2494 4147 2053 4147 
L 1259 4147 
z
M 628 4666 
L 2053 4666 
Q 2838 4666 3239 4311 
Q 3641 3956 3641 3272 
Q 3641 2581 3239 2228 
Q 2838 1875 2053 1875 
L 1259 1875 
L 1259 0 
L 628 0 
L 628 4666 
z
" transform="scale(0.015625)"/>
       <path id="DejaVuSans-73" d="M 2834 3397 
L 2834 2853 
Q 2591 2978 2328 3040 
Q 2066 3103 1784 3103 
Q 1356 3103 1142 2972 
Q 928 2841 928 2578 
Q 928 2378 1081 2264 
Q 1234 2150 1697 2047 
L 1894 2003 
Q 2506 1872 2764 1633 
Q 3022 1394 3022 966 
Q 3022 478 2636 193 
Q 2250 -91 1575 -91 
Q 1294 -91 989 -36 
Q 684 19 347 128 
L 347 722 
Q 666 556 975 473 
Q 1284 391 1588 391 
Q 1994 391 2212 530 
Q 2431 669 2431 922 
Q 2431 1156 2273 1281 
Q 2116 1406 1581 1522 
L 1381 1569 
Q 847 1681 609 1914 
Q 372 2147 372 2553 
Q 372 3047 722 3315 
Q 1072 3584 1716 3584 
Q 2034 3584 2315 3537 
Q 2597 3491 2834 3397 
z
" transform="scale(0.015625)"/>
      </defs>
      <use xlink:href="#DejaVuSans-44"/>
      <use xlink:href="#DejaVuSans-61" x="77.001953"/>
      <use xlink:href="#DejaVuSans-74" x="138.28125"/>
      <use xlink:href="#DejaVuSans-61" x="177.490234"/>
      <use xlink:href="#DejaVuSans-20" x="238.769531"/>
      <use xlink:href="#DejaVuSans-50" x="270.556641"/>
      <use xlink:href="#DejaVuSans-6f" x="327.234375"/>
      <use xlink:href="#DejaVuSans-69" x="388.416016"/>
      <use xlink:href="#DejaVuSans-6e" x="416.199219"/>
      <use xlink:href="#DejaVuSans-74" x="479.578125"/>
      <use xlink:href="#DejaVuSans-73" x="518.787109"/>
     </g>
    </g>
    <g id="line2d_36">
     <g>
      <use xlink:href="#mb9eb3d980c" x="419.54" y="374.900312" style="fill: #ff0000; stroke: #ff0000"/>
     </g>
    </g>
    <g id="text_20">
     <!-- Starting Point -->
     <g transform="translate(437.54 378.400312) scale(0.1 -0.1)">
      <defs>
       <path id="DejaVuSans-53" d="M 3425 4513 
L 3425 3897 
Q 3066 4069 2747 4153 
Q 2428 4238 2131 4238 
Q 1616 4238 1336 4038 
Q 1056 3838 1056 3469 
Q 1056 3159 1242 3001 
Q 1428 2844 1947 2747 
L 2328 2669 
Q 3034 2534 3370 2195 
Q 3706 1856 3706 1288 
Q 3706 609 3251 259 
Q 2797 -91 1919 -91 
Q 1588 -91 1214 -16 
Q 841 59 441 206 
L 441 856 
Q 825 641 1194 531 
Q 1563 422 1919 422 
Q 2459 422 2753 634 
Q 3047 847 3047 1241 
Q 3047 1584 2836 1778 
Q 2625 1972 2144 2069 
L 1759 2144 
Q 1053 2284 737 2584 
Q 422 2884 422 3419 
Q 422 4038 858 4394 
Q 1294 4750 2059 4750 
Q 2388 4750 2728 4690 
Q 3069 4631 3425 4513 
z
" transform="scale(0.015625)"/>
       <path id="DejaVuSans-67" d="M 2906 1791 
Q 2906 2416 2648 2759 
Q 2391 3103 1925 3103 
Q 1463 3103 1205 2759 
Q 947 2416 947 1791 
Q 947 1169 1205 825 
Q 1463 481 1925 481 
Q 2391 481 2648 825 
Q 2906 1169 2906 1791 
z
M 3481 434 
Q 3481 -459 3084 -895 
Q 2688 -1331 1869 -1331 
Q 1566 -1331 1297 -1286 
Q 1028 -1241 775 -1147 
L 775 -588 
Q 1028 -725 1275 -790 
Q 1522 -856 1778 -856 
Q 2344 -856 2625 -561 
Q 2906 -266 2906 331 
L 2906 616 
Q 2728 306 2450 153 
Q 2172 0 1784 0 
Q 1141 0 747 490 
Q 353 981 353 1791 
Q 353 2603 747 3093 
Q 1141 3584 1784 3584 
Q 2172 3584 2450 3431 
Q 2728 3278 2906 2969 
L 2906 3500 
L 3481 3500 
L 3481 434 
z
" transform="scale(0.015625)"/>
      </defs>
      <use xlink:href="#DejaVuSans-53"/>
      <use xlink:href="#DejaVuSans-74" x="63.476562"/>
      <use xlink:href="#DejaVuSans-61" x="102.685547"/>
      <use xlink:href="#DejaVuSans-72" x="163.964844"/>
      <use xlink:href="#DejaVuSans-74" x="205.078125"/>
      <use xlink:href="#DejaVuSans-69" x="244.287109"/>
      <use xlink:href="#DejaVuSans-6e" x="272.070312"/>
      <use xlink:href="#DejaVuSans-67" x="335.449219"/>
      <use xlink:href="#DejaVuSans-20" x="398.925781"/>
      <use xlink:href="#DejaVuSans-50" x="430.712891"/>
      <use xlink:href="#DejaVuSans-6f" x="487.390625"/>
      <use xlink:href="#DejaVuSans-69" x="548.572266"/>
      <use xlink:href="#DejaVuSans-6e" x="576.355469"/>
      <use xlink:href="#DejaVuSans-74" x="639.734375"/>
     </g>
    </g>
   </g>
  </g>
 </g>
 <defs>
  <clipPath id="p792cf1bc02">
   <rect x="54" y="51.84" width="334.8" height="332.64"/>
  </clipPath>
 </defs>
</svg>
