<?xml version="1.0" encoding="utf-8" standalone="no"?>
<!DOCTYPE svg PUBLIC "-//W3C//DTD SVG 1.1//EN"
  "http://www.w3.org/Graphics/SVG/1.1/DTD/svg11.dtd">
<svg xmlns:xlink="http://www.w3.org/1999/xlink" width="432pt" height="432pt" viewBox="0 0 432 432" xmlns="http://www.w3.org/2000/svg" version="1.1">
 <metadata>
  <rdf:RDF xmlns:dc="http://purl.org/dc/elements/1.1/" xmlns:cc="http://creativecommons.org/ns#" xmlns:rdf="http://www.w3.org/1999/02/22-rdf-syntax-ns#">
   <cc:Work>
    <dc:type rdf:resource="http://purl.org/dc/dcmitype/StillImage"/>
    <dc:date>2024-03-14T01:37:49.444499</dc:date>
    <dc:format>image/svg+xml</dc:format>
    <dc:creator>
     <cc:Agent>
      <dc:title>Matplotlib v3.8.1, https://matplotlib.org/</dc:title>
     </cc:Agent>
    </dc:creator>
   </cc:Work>
  </rdf:RDF>
 </metadata>
 <defs>
  <style type="text/css">*{stroke-linejoin: round; stroke-linecap: butt}</style>
 </defs>
 <g id="figure_1">
  <g id="patch_1">
   <path d="M 0 432 
L 432 432 
L 432 0 
L 0 0 
z
" style="fill: #ffffff"/>
  </g>
  <g id="axes_1">
   <g id="patch_2">
    <path d="M 54 384.48 
L 388.8 384.48 
L 388.8 51.84 
L 54 51.84 
z
" style="fill: #ffffff"/>
   </g>
   <g id="patch_3">
    <path d="M 165.6 251.424 
L 171.589084 243.490073 
L 173.584448 247.455053 
L 210.239002 229.246017 
L 210.240998 229.249983 
L 173.586444 247.45902 
L 175.581807 251.424 
z
" clip-path="url(#pe110cd64be)" style="fill: #b3ccff; stroke: #b3ccff; stroke-linejoin: miter"/>
   </g>
   <g id="patch_4">
    <path d="M 120.96 251.424 
L 129.888 246.9888 
L 129.888 251.421782 
L 165.6 251.421782 
L 165.6 251.426218 
L 129.888 251.426218 
L 129.888 255.8592 
z
" clip-path="url(#pe110cd64be)" style="fill: #b3ccff; stroke: #b3ccff; stroke-linejoin: miter"/>
   </g>
   <g id="patch_5">
    <path d="M 76.32 251.424 
L 85.248 246.9888 
L 85.248 251.421782 
L 120.96 251.421782 
L 120.96 251.426218 
L 85.248 251.426218 
L 85.248 255.8592 
z
" clip-path="url(#pe110cd64be)" style="fill: #b3ccff; stroke: #b3ccff; stroke-linejoin: miter"/>
   </g>
   <g id="patch_6">
    <path d="M 98.64 295.776 
L 90.654554 289.825555 
L 94.645281 287.843065 
L 76.318004 251.424992 
L 76.321996 251.423008 
L 94.649273 287.841081 
L 98.64 285.858591 
z
" clip-path="url(#pe110cd64be)" style="fill: #b3ccff; stroke: #b3ccff; stroke-linejoin: miter"/>
   </g>
   <g id="patch_7">
    <path d="M 120.96 340.128 
L 112.974554 334.177555 
L 116.965281 332.195065 
L 98.638004 295.776992 
L 98.641996 295.775008 
L 116.969273 332.193081 
L 120.96 330.210591 
z
" clip-path="url(#pe110cd64be)" style="fill: #b3ccff; stroke: #b3ccff; stroke-linejoin: miter"/>
   </g>
   <g id="patch_8">
    <path d="M 187.92 362.304 
L 178.038515 363.706533 
L 179.44945 359.501037 
L 120.959294 340.130104 
L 120.960706 340.125896 
L 179.450861 359.496829 
L 180.861796 355.291333 
z
" clip-path="url(#pe110cd64be)" style="fill: #b3ccff; stroke: #b3ccff; stroke-linejoin: miter"/>
   </g>
   <g id="patch_9">
    <path d="M 254.88 340.128 
L 247.821796 347.140667 
L 246.410861 342.935171 
L 187.920706 362.306104 
L 187.919294 362.301896 
L 246.40945 342.930963 
L 244.998515 338.725467 
z
" clip-path="url(#pe110cd64be)" style="fill: #b3ccff; stroke: #b3ccff; stroke-linejoin: miter"/>
   </g>
   <g id="patch_10">
    <path d="M 299.52 362.304 
L 289.538193 362.304 
L 291.533556 358.33902 
L 254.879002 340.129983 
L 254.880998 340.126017 
L 291.535552 358.335053 
L 293.530916 354.370073 
z
" clip-path="url(#pe110cd64be)" style="fill: #b3ccff; stroke: #b3ccff; stroke-linejoin: miter"/>
   </g>
   <g id="patch_11">
    <path d="M 344.16 295.776 
L 342.921909 305.616825 
L 339.209494 303.157849 
L 299.521857 362.30523 
L 299.518143 362.30277 
L 339.20578 303.155389 
L 335.493364 300.696413 
z
" clip-path="url(#pe110cd64be)" style="fill: #b3ccff; stroke: #b3ccff; stroke-linejoin: miter"/>
   </g>
   <g id="patch_12">
    <path d="M 299.52 295.776 
L 308.448 291.3408 
L 308.448 295.773782 
L 344.16 295.773782 
L 344.16 295.778218 
L 308.448 295.778218 
L 308.448 300.2112 
z
" clip-path="url(#pe110cd64be)" style="fill: #b3ccff; stroke: #b3ccff; stroke-linejoin: miter"/>
   </g>
   <g id="patch_13">
    <path d="M 254.88 295.776 
L 263.808 291.3408 
L 263.808 295.773782 
L 299.52 295.773782 
L 299.52 295.778218 
L 263.808 295.778218 
L 263.808 300.2112 
z
" clip-path="url(#pe110cd64be)" style="fill: #b3ccff; stroke: #b3ccff; stroke-linejoin: miter"/>
   </g>
   <g id="patch_14">
    <path d="M 210.24 309.0816 
L 217.508752 302.284558 
L 218.790832 306.530585 
L 254.879359 295.773876 
L 254.880641 295.778124 
L 218.792114 306.534833 
L 220.074194 310.78086 
z
" clip-path="url(#pe110cd64be)" style="fill: #b3ccff; stroke: #b3ccff; stroke-linejoin: miter"/>
   </g>
   <g id="patch_15">
    <path d="M 187.92 273.6 
L 196.437295 278.771433 
L 192.653723 281.120909 
L 210.241893 309.080425 
L 210.238107 309.082775 
L 192.649938 281.123259 
L 188.866366 283.472735 
z
" clip-path="url(#pe110cd64be)" style="fill: #b3ccff; stroke: #b3ccff; stroke-linejoin: miter"/>
   </g>
   <g id="patch_16">
    <path d="M 210.24 229.248 
L 210.24 239.165409 
L 206.249273 237.182919 
L 187.921996 273.600992 
L 187.918004 273.599008 
L 206.245281 237.180935 
L 202.254554 235.198445 
z
" clip-path="url(#pe110cd64be)" style="fill: #b3ccff; stroke: #b3ccff; stroke-linejoin: miter"/>
   </g>
   <g id="patch_17">
    <path d="M 254.88 251.424 
L 244.898193 251.424 
L 246.893556 247.45902 
L 210.239002 229.249983 
L 210.240998 229.246017 
L 246.895552 247.455053 
L 248.890916 243.490073 
z
" clip-path="url(#pe110cd64be)" style="fill: #ffc559; stroke: #ffc559; stroke-linejoin: miter"/>
   </g>
   <g id="patch_18">
    <path d="M 277.2 229.248 
L 274.043475 238.65648 
L 270.888529 235.521888 
L 254.881578 251.425568 
L 254.878422 251.422432 
L 270.885372 235.518752 
L 267.730426 232.38416 
z
" clip-path="url(#pe110cd64be)" style="fill: #ffc559; stroke: #ffc559; stroke-linejoin: miter"/>
   </g>
   <g id="patch_19">
    <path d="M 344.16 229.248 
L 335.232 233.6832 
L 335.232 229.250218 
L 277.2 229.250218 
L 277.2 229.245782 
L 335.232 229.245782 
L 335.232 224.8128 
z
" clip-path="url(#pe110cd64be)" style="fill: #ffc559; stroke: #ffc559; stroke-linejoin: miter"/>
   </g>
   <g id="patch_20">
    <path d="M 339.696 198.2016 
L 345.377744 206.355616 
L 340.960819 206.982534 
L 344.16221 229.247686 
L 344.15779 229.248314 
L 340.9564 206.983162 
L 336.539475 207.61008 
z
" clip-path="url(#pe110cd64be)" style="fill: #ffc559; stroke: #ffc559; stroke-linejoin: miter"/>
   </g>
   <g id="patch_21">
    <path d="M 299.52 184.896 
L 309.401485 183.493467 
L 307.99055 187.698963 
L 339.696706 198.199496 
L 339.695294 198.203704 
L 307.989139 187.703171 
L 306.578204 191.908667 
z
" clip-path="url(#pe110cd64be)" style="fill: #ffc559; stroke: #ffc559; stroke-linejoin: miter"/>
   </g>
   <g id="patch_22">
    <path d="M 299.52 118.368 
L 303.984 127.2384 
L 299.522232 127.2384 
L 299.522232 184.896 
L 299.517768 184.896 
L 299.517768 127.2384 
L 295.056 127.2384 
z
" clip-path="url(#pe110cd64be)" style="fill: #ffc559; stroke: #ffc559; stroke-linejoin: miter"/>
   </g>
   <g id="patch_23">
    <path d="M 254.88 96.192 
L 264.861807 96.192 
L 262.866444 100.15698 
L 299.520998 118.366017 
L 299.519002 118.369983 
L 262.864448 100.160947 
L 260.869084 104.125927 
z
" clip-path="url(#pe110cd64be)" style="fill: #ffc559; stroke: #ffc559; stroke-linejoin: miter"/>
   </g>
   <g id="patch_24">
    <path d="M 232.56 118.368 
L 235.716525 108.95952 
L 238.871471 112.094112 
L 254.878422 96.190432 
L 254.881578 96.193568 
L 238.874628 112.097248 
L 242.029574 115.23184 
z
" clip-path="url(#pe110cd64be)" style="fill: #ffc559; stroke: #ffc559; stroke-linejoin: miter"/>
   </g>
   <g id="patch_25">
    <path d="M 187.92 118.368 
L 196.848 113.9328 
L 196.848 118.365782 
L 232.56 118.365782 
L 232.56 118.370218 
L 196.848 118.370218 
L 196.848 122.8032 
z
" clip-path="url(#pe110cd64be)" style="fill: #ffc559; stroke: #ffc559; stroke-linejoin: miter"/>
   </g>
   <g id="patch_26">
    <path d="M 143.28 96.192 
L 153.261807 96.192 
L 151.266444 100.15698 
L 187.920998 118.366017 
L 187.919002 118.369983 
L 151.264448 100.160947 
L 149.269084 104.125927 
z
" clip-path="url(#pe110cd64be)" style="fill: #ffc559; stroke: #ffc559; stroke-linejoin: miter"/>
   </g>
   <g id="patch_27">
    <path d="M 120.96 118.368 
L 124.116525 108.95952 
L 127.271471 112.094112 
L 143.278422 96.190432 
L 143.281578 96.193568 
L 127.274628 112.097248 
L 130.429574 115.23184 
z
" clip-path="url(#pe110cd64be)" style="fill: #ffc559; stroke: #ffc559; stroke-linejoin: miter"/>
   </g>
   <g id="patch_28">
    <path d="M 143.28 162.72 
L 135.294554 156.769555 
L 139.285281 154.787065 
L 120.958004 118.368992 
L 120.961996 118.367008 
L 139.289273 154.785081 
L 143.28 152.802591 
z
" clip-path="url(#pe110cd64be)" style="fill: #ffc559; stroke: #ffc559; stroke-linejoin: miter"/>
   </g>
   <g id="patch_29">
    <path d="M 98.64 193.7664 
L 103.394167 185.046102 
L 105.952823 188.677743 
L 143.27872 162.718183 
L 143.28128 162.721817 
L 105.955383 188.681376 
L 108.514038 192.313017 
z
" clip-path="url(#pe110cd64be)" style="fill: #ffc559; stroke: #ffc559; stroke-linejoin: miter"/>
   </g>
   <g id="patch_30">
    <path d="M 143.28 207.072 
L 133.445806 208.77126 
L 134.727886 204.525233 
L 98.639359 193.768524 
L 98.640641 193.764276 
L 134.729168 204.520985 
L 136.011248 200.274958 
z
" clip-path="url(#pe110cd64be)" style="fill: #ffc559; stroke: #ffc559; stroke-linejoin: miter"/>
   </g>
   <g id="patch_31">
    <path d="M 210.24 229.248 
L 200.358515 230.650533 
L 201.76945 226.445037 
L 143.279294 207.074104 
L 143.280706 207.069896 
L 201.770861 226.440829 
L 203.181796 222.235333 
z
" clip-path="url(#pe110cd64be)" style="fill: #ffc559; stroke: #ffc559; stroke-linejoin: miter"/>
   </g>
   <g id="patch_32">
    <path d="M 210.24 207.072 
L 214.704 215.9424 
L 210.242232 215.9424 
L 210.242232 229.248 
L 210.237768 229.248 
L 210.237768 215.9424 
L 205.776 215.9424 
z
" clip-path="url(#pe110cd64be)" style="fill: #93e493; stroke: #93e493; stroke-linejoin: miter"/>
   </g>
   <g id="patch_33">
    <path d="M 237.024 167.1552 
L 235.785909 176.996025 
L 232.073494 174.537049 
L 210.241857 207.07323 
L 210.238143 207.07077 
L 232.06978 174.534589 
L 228.357364 172.075613 
z
" clip-path="url(#pe110cd64be)" style="fill: #93e493; stroke: #93e493; stroke-linejoin: miter"/>
   </g>
   <g id="patch_34">
    <path d="M 237.024 220.3776 
L 232.56 211.5072 
L 237.021768 211.5072 
L 237.021768 167.1552 
L 237.026232 167.1552 
L 237.026232 211.5072 
L 241.488 211.5072 
z
" clip-path="url(#pe110cd64be)" style="fill: #93e493; stroke: #93e493; stroke-linejoin: miter"/>
   </g>
   <g id="patch_35">
    <path d="M 210.24 229.248 
L 217.298204 222.235333 
L 218.709139 226.440829 
L 237.023294 220.375496 
L 237.024706 220.379704 
L 218.71055 226.445037 
L 220.121485 230.650533 
z
" clip-path="url(#pe110cd64be)" style="fill: #93e493; stroke: #93e493; stroke-linejoin: miter"/>
   </g>
   <g id="matplotlib.axis_1">
    <g id="xtick_1">
     <g id="line2d_1">
      <path d="M 54 384.48 
L 54 51.84 
" clip-path="url(#pe110cd64be)" style="fill: none; stroke: #b0b0b0; stroke-width: 0.8; stroke-linecap: square"/>
     </g>
     <g id="line2d_2">
      <defs>
       <path id="m9608fb5cc4" d="M 0 0 
L 0 3.5 
" style="stroke: #000000; stroke-width: 0.8"/>
      </defs>
      <g>
       <use xlink:href="#m9608fb5cc4" x="54" y="384.48" style="stroke: #000000; stroke-width: 0.8"/>
      </g>
     </g>
     <g id="text_1">
      <!-- 0 -->
      <g transform="translate(50.81875 399.078438) scale(0.1 -0.1)">
       <defs>
        <path id="DejaVuSans-30" d="M 2034 4250 
Q 1547 4250 1301 3770 
Q 1056 3291 1056 2328 
Q 1056 1369 1301 889 
Q 1547 409 2034 409 
Q 2525 409 2770 889 
Q 3016 1369 3016 2328 
Q 3016 3291 2770 3770 
Q 2525 4250 2034 4250 
z
M 2034 4750 
Q 2819 4750 3233 4129 
Q 3647 3509 3647 2328 
Q 3647 1150 3233 529 
Q 2819 -91 2034 -91 
Q 1250 -91 836 529 
Q 422 1150 422 2328 
Q 422 3509 836 4129 
Q 1250 4750 2034 4750 
z
" transform="scale(0.015625)"/>
       </defs>
       <use xlink:href="#DejaVuSans-30"/>
      </g>
     </g>
    </g>
    <g id="xtick_2">
     <g id="line2d_3">
      <path d="M 98.64 384.48 
L 98.64 51.84 
" clip-path="url(#pe110cd64be)" style="fill: none; stroke: #b0b0b0; stroke-width: 0.8; stroke-linecap: square"/>
     </g>
     <g id="line2d_4">
      <g>
       <use xlink:href="#m9608fb5cc4" x="98.64" y="384.48" style="stroke: #000000; stroke-width: 0.8"/>
      </g>
     </g>
     <g id="text_2">
      <!-- 10 -->
      <g transform="translate(92.2775 399.078438) scale(0.1 -0.1)">
       <defs>
        <path id="DejaVuSans-31" d="M 794 531 
L 1825 531 
L 1825 4091 
L 703 3866 
L 703 4441 
L 1819 4666 
L 2450 4666 
L 2450 531 
L 3481 531 
L 3481 0 
L 794 0 
L 794 531 
z
" transform="scale(0.015625)"/>
       </defs>
       <use xlink:href="#DejaVuSans-31"/>
       <use xlink:href="#DejaVuSans-30" x="63.623047"/>
      </g>
     </g>
    </g>
    <g id="xtick_3">
     <g id="line2d_5">
      <path d="M 143.28 384.48 
L 143.28 51.84 
" clip-path="url(#pe110cd64be)" style="fill: none; stroke: #b0b0b0; stroke-width: 0.8; stroke-linecap: square"/>
     </g>
     <g id="line2d_6">
      <g>
       <use xlink:href="#m9608fb5cc4" x="143.28" y="384.48" style="stroke: #000000; stroke-width: 0.8"/>
      </g>
     </g>
     <g id="text_3">
      <!-- 20 -->
      <g transform="translate(136.9175 399.078438) scale(0.1 -0.1)">
       <defs>
        <path id="DejaVuSans-32" d="M 1228 531 
L 3431 531 
L 3431 0 
L 469 0 
L 469 531 
Q 828 903 1448 1529 
Q 2069 2156 2228 2338 
Q 2531 2678 2651 2914 
Q 2772 3150 2772 3378 
Q 2772 3750 2511 3984 
Q 2250 4219 1831 4219 
Q 1534 4219 1204 4116 
Q 875 4013 500 3803 
L 500 4441 
Q 881 4594 1212 4672 
Q 1544 4750 1819 4750 
Q 2544 4750 2975 4387 
Q 3406 4025 3406 3419 
Q 3406 3131 3298 2873 
Q 3191 2616 2906 2266 
Q 2828 2175 2409 1742 
Q 1991 1309 1228 531 
z
" transform="scale(0.015625)"/>
       </defs>
       <use xlink:href="#DejaVuSans-32"/>
       <use xlink:href="#DejaVuSans-30" x="63.623047"/>
      </g>
     </g>
    </g>
    <g id="xtick_4">
     <g id="line2d_7">
      <path d="M 187.92 384.48 
L 187.92 51.84 
" clip-path="url(#pe110cd64be)" style="fill: none; stroke: #b0b0b0; stroke-width: 0.8; stroke-linecap: square"/>
     </g>
     <g id="line2d_8">
      <g>
       <use xlink:href="#m9608fb5cc4" x="187.92" y="384.48" style="stroke: #000000; stroke-width: 0.8"/>
      </g>
     </g>
     <g id="text_4">
      <!-- 30 -->
      <g transform="translate(181.5575 399.078438) scale(0.1 -0.1)">
       <defs>
        <path id="DejaVuSans-33" d="M 2597 2516 
Q 3050 2419 3304 2112 
Q 3559 1806 3559 1356 
Q 3559 666 3084 287 
Q 2609 -91 1734 -91 
Q 1441 -91 1130 -33 
Q 819 25 488 141 
L 488 750 
Q 750 597 1062 519 
Q 1375 441 1716 441 
Q 2309 441 2620 675 
Q 2931 909 2931 1356 
Q 2931 1769 2642 2001 
Q 2353 2234 1838 2234 
L 1294 2234 
L 1294 2753 
L 1863 2753 
Q 2328 2753 2575 2939 
Q 2822 3125 2822 3475 
Q 2822 3834 2567 4026 
Q 2313 4219 1838 4219 
Q 1578 4219 1281 4162 
Q 984 4106 628 3988 
L 628 4550 
Q 988 4650 1302 4700 
Q 1616 4750 1894 4750 
Q 2613 4750 3031 4423 
Q 3450 4097 3450 3541 
Q 3450 3153 3228 2886 
Q 3006 2619 2597 2516 
z
" transform="scale(0.015625)"/>
       </defs>
       <use xlink:href="#DejaVuSans-33"/>
       <use xlink:href="#DejaVuSans-30" x="63.623047"/>
      </g>
     </g>
    </g>
    <g id="xtick_5">
     <g id="line2d_9">
      <path d="M 232.56 384.48 
L 232.56 51.84 
" clip-path="url(#pe110cd64be)" style="fill: none; stroke: #b0b0b0; stroke-width: 0.8; stroke-linecap: square"/>
     </g>
     <g id="line2d_10">
      <g>
       <use xlink:href="#m9608fb5cc4" x="232.56" y="384.48" style="stroke: #000000; stroke-width: 0.8"/>
      </g>
     </g>
     <g id="text_5">
      <!-- 40 -->
      <g transform="translate(226.1975 399.078438) scale(0.1 -0.1)">
       <defs>
        <path id="DejaVuSans-34" d="M 2419 4116 
L 825 1625 
L 2419 1625 
L 2419 4116 
z
M 2253 4666 
L 3047 4666 
L 3047 1625 
L 3713 1625 
L 3713 1100 
L 3047 1100 
L 3047 0 
L 2419 0 
L 2419 1100 
L 313 1100 
L 313 1709 
L 2253 4666 
z
" transform="scale(0.015625)"/>
       </defs>
       <use xlink:href="#DejaVuSans-34"/>
       <use xlink:href="#DejaVuSans-30" x="63.623047"/>
      </g>
     </g>
    </g>
    <g id="xtick_6">
     <g id="line2d_11">
      <path d="M 277.2 384.48 
L 277.2 51.84 
" clip-path="url(#pe110cd64be)" style="fill: none; stroke: #b0b0b0; stroke-width: 0.8; stroke-linecap: square"/>
     </g>
     <g id="line2d_12">
      <g>
       <use xlink:href="#m9608fb5cc4" x="277.2" y="384.48" style="stroke: #000000; stroke-width: 0.8"/>
      </g>
     </g>
     <g id="text_6">
      <!-- 50 -->
      <g transform="translate(270.8375 399.078438) scale(0.1 -0.1)">
       <defs>
        <path id="DejaVuSans-35" d="M 691 4666 
L 3169 4666 
L 3169 4134 
L 1269 4134 
L 1269 2991 
Q 1406 3038 1543 3061 
Q 1681 3084 1819 3084 
Q 2600 3084 3056 2656 
Q 3513 2228 3513 1497 
Q 3513 744 3044 326 
Q 2575 -91 1722 -91 
Q 1428 -91 1123 -41 
Q 819 9 494 109 
L 494 744 
Q 775 591 1075 516 
Q 1375 441 1709 441 
Q 2250 441 2565 725 
Q 2881 1009 2881 1497 
Q 2881 1984 2565 2268 
Q 2250 2553 1709 2553 
Q 1456 2553 1204 2497 
Q 953 2441 691 2322 
L 691 4666 
z
" transform="scale(0.015625)"/>
       </defs>
       <use xlink:href="#DejaVuSans-35"/>
       <use xlink:href="#DejaVuSans-30" x="63.623047"/>
      </g>
     </g>
    </g>
    <g id="xtick_7">
     <g id="line2d_13">
      <path d="M 321.84 384.48 
L 321.84 51.84 
" clip-path="url(#pe110cd64be)" style="fill: none; stroke: #b0b0b0; stroke-width: 0.8; stroke-linecap: square"/>
     </g>
     <g id="line2d_14">
      <g>
       <use xlink:href="#m9608fb5cc4" x="321.84" y="384.48" style="stroke: #000000; stroke-width: 0.8"/>
      </g>
     </g>
     <g id="text_7">
      <!-- 60 -->
      <g transform="translate(315.4775 399.078438) scale(0.1 -0.1)">
       <defs>
        <path id="DejaVuSans-36" d="M 2113 2584 
Q 1688 2584 1439 2293 
Q 1191 2003 1191 1497 
Q 1191 994 1439 701 
Q 1688 409 2113 409 
Q 2538 409 2786 701 
Q 3034 994 3034 1497 
Q 3034 2003 2786 2293 
Q 2538 2584 2113 2584 
z
M 3366 4563 
L 3366 3988 
Q 3128 4100 2886 4159 
Q 2644 4219 2406 4219 
Q 1781 4219 1451 3797 
Q 1122 3375 1075 2522 
Q 1259 2794 1537 2939 
Q 1816 3084 2150 3084 
Q 2853 3084 3261 2657 
Q 3669 2231 3669 1497 
Q 3669 778 3244 343 
Q 2819 -91 2113 -91 
Q 1303 -91 875 529 
Q 447 1150 447 2328 
Q 447 3434 972 4092 
Q 1497 4750 2381 4750 
Q 2619 4750 2861 4703 
Q 3103 4656 3366 4563 
z
" transform="scale(0.015625)"/>
       </defs>
       <use xlink:href="#DejaVuSans-36"/>
       <use xlink:href="#DejaVuSans-30" x="63.623047"/>
      </g>
     </g>
    </g>
    <g id="xtick_8">
     <g id="line2d_15">
      <path d="M 366.48 384.48 
L 366.48 51.84 
" clip-path="url(#pe110cd64be)" style="fill: none; stroke: #b0b0b0; stroke-width: 0.8; stroke-linecap: square"/>
     </g>
     <g id="line2d_16">
      <g>
       <use xlink:href="#m9608fb5cc4" x="366.48" y="384.48" style="stroke: #000000; stroke-width: 0.8"/>
      </g>
     </g>
     <g id="text_8">
      <!-- 70 -->
      <g transform="translate(360.1175 399.078438) scale(0.1 -0.1)">
       <defs>
        <path id="DejaVuSans-37" d="M 525 4666 
L 3525 4666 
L 3525 4397 
L 1831 0 
L 1172 0 
L 2766 4134 
L 525 4134 
L 525 4666 
z
" transform="scale(0.015625)"/>
       </defs>
       <use xlink:href="#DejaVuSans-37"/>
       <use xlink:href="#DejaVuSans-30" x="63.623047"/>
      </g>
     </g>
    </g>
    <g id="text_9">
     <!-- X Coordinate -->
     <g transform="translate(188.975 412.756563) scale(0.1 -0.1)">
      <defs>
       <path id="DejaVuSans-58" d="M 403 4666 
L 1081 4666 
L 2241 2931 
L 3406 4666 
L 4084 4666 
L 2584 2425 
L 4184 0 
L 3506 0 
L 2194 1984 
L 872 0 
L 191 0 
L 1856 2491 
L 403 4666 
z
" transform="scale(0.015625)"/>
       <path id="DejaVuSans-20" transform="scale(0.015625)"/>
       <path id="DejaVuSans-43" d="M 4122 4306 
L 4122 3641 
Q 3803 3938 3442 4084 
Q 3081 4231 2675 4231 
Q 1875 4231 1450 3742 
Q 1025 3253 1025 2328 
Q 1025 1406 1450 917 
Q 1875 428 2675 428 
Q 3081 428 3442 575 
Q 3803 722 4122 1019 
L 4122 359 
Q 3791 134 3420 21 
Q 3050 -91 2638 -91 
Q 1578 -91 968 557 
Q 359 1206 359 2328 
Q 359 3453 968 4101 
Q 1578 4750 2638 4750 
Q 3056 4750 3426 4639 
Q 3797 4528 4122 4306 
z
" transform="scale(0.015625)"/>
       <path id="DejaVuSans-6f" d="M 1959 3097 
Q 1497 3097 1228 2736 
Q 959 2375 959 1747 
Q 959 1119 1226 758 
Q 1494 397 1959 397 
Q 2419 397 2687 759 
Q 2956 1122 2956 1747 
Q 2956 2369 2687 2733 
Q 2419 3097 1959 3097 
z
M 1959 3584 
Q 2709 3584 3137 3096 
Q 3566 2609 3566 1747 
Q 3566 888 3137 398 
Q 2709 -91 1959 -91 
Q 1206 -91 779 398 
Q 353 888 353 1747 
Q 353 2609 779 3096 
Q 1206 3584 1959 3584 
z
" transform="scale(0.015625)"/>
       <path id="DejaVuSans-72" d="M 2631 2963 
Q 2534 3019 2420 3045 
Q 2306 3072 2169 3072 
Q 1681 3072 1420 2755 
Q 1159 2438 1159 1844 
L 1159 0 
L 581 0 
L 581 3500 
L 1159 3500 
L 1159 2956 
Q 1341 3275 1631 3429 
Q 1922 3584 2338 3584 
Q 2397 3584 2469 3576 
Q 2541 3569 2628 3553 
L 2631 2963 
z
" transform="scale(0.015625)"/>
       <path id="DejaVuSans-64" d="M 2906 2969 
L 2906 4863 
L 3481 4863 
L 3481 0 
L 2906 0 
L 2906 525 
Q 2725 213 2448 61 
Q 2172 -91 1784 -91 
Q 1150 -91 751 415 
Q 353 922 353 1747 
Q 353 2572 751 3078 
Q 1150 3584 1784 3584 
Q 2172 3584 2448 3432 
Q 2725 3281 2906 2969 
z
M 947 1747 
Q 947 1113 1208 752 
Q 1469 391 1925 391 
Q 2381 391 2643 752 
Q 2906 1113 2906 1747 
Q 2906 2381 2643 2742 
Q 2381 3103 1925 3103 
Q 1469 3103 1208 2742 
Q 947 2381 947 1747 
z
" transform="scale(0.015625)"/>
       <path id="DejaVuSans-69" d="M 603 3500 
L 1178 3500 
L 1178 0 
L 603 0 
L 603 3500 
z
M 603 4863 
L 1178 4863 
L 1178 4134 
L 603 4134 
L 603 4863 
z
" transform="scale(0.015625)"/>
       <path id="DejaVuSans-6e" d="M 3513 2113 
L 3513 0 
L 2938 0 
L 2938 2094 
Q 2938 2591 2744 2837 
Q 2550 3084 2163 3084 
Q 1697 3084 1428 2787 
Q 1159 2491 1159 1978 
L 1159 0 
L 581 0 
L 581 3500 
L 1159 3500 
L 1159 2956 
Q 1366 3272 1645 3428 
Q 1925 3584 2291 3584 
Q 2894 3584 3203 3211 
Q 3513 2838 3513 2113 
z
" transform="scale(0.015625)"/>
       <path id="DejaVuSans-61" d="M 2194 1759 
Q 1497 1759 1228 1600 
Q 959 1441 959 1056 
Q 959 750 1161 570 
Q 1363 391 1709 391 
Q 2188 391 2477 730 
Q 2766 1069 2766 1631 
L 2766 1759 
L 2194 1759 
z
M 3341 1997 
L 3341 0 
L 2766 0 
L 2766 531 
Q 2569 213 2275 61 
Q 1981 -91 1556 -91 
Q 1019 -91 701 211 
Q 384 513 384 1019 
Q 384 1609 779 1909 
Q 1175 2209 1959 2209 
L 2766 2209 
L 2766 2266 
Q 2766 2663 2505 2880 
Q 2244 3097 1772 3097 
Q 1472 3097 1187 3025 
Q 903 2953 641 2809 
L 641 3341 
Q 956 3463 1253 3523 
Q 1550 3584 1831 3584 
Q 2591 3584 2966 3190 
Q 3341 2797 3341 1997 
z
" transform="scale(0.015625)"/>
       <path id="DejaVuSans-74" d="M 1172 4494 
L 1172 3500 
L 2356 3500 
L 2356 3053 
L 1172 3053 
L 1172 1153 
Q 1172 725 1289 603 
Q 1406 481 1766 481 
L 2356 481 
L 2356 0 
L 1766 0 
Q 1100 0 847 248 
Q 594 497 594 1153 
L 594 3053 
L 172 3053 
L 172 3500 
L 594 3500 
L 594 4494 
L 1172 4494 
z
" transform="scale(0.015625)"/>
       <path id="DejaVuSans-65" d="M 3597 1894 
L 3597 1613 
L 953 1613 
Q 991 1019 1311 708 
Q 1631 397 2203 397 
Q 2534 397 2845 478 
Q 3156 559 3463 722 
L 3463 178 
Q 3153 47 2828 -22 
Q 2503 -91 2169 -91 
Q 1331 -91 842 396 
Q 353 884 353 1716 
Q 353 2575 817 3079 
Q 1281 3584 2069 3584 
Q 2775 3584 3186 3129 
Q 3597 2675 3597 1894 
z
M 3022 2063 
Q 3016 2534 2758 2815 
Q 2500 3097 2075 3097 
Q 1594 3097 1305 2825 
Q 1016 2553 972 2059 
L 3022 2063 
z
" transform="scale(0.015625)"/>
      </defs>
      <use xlink:href="#DejaVuSans-58"/>
      <use xlink:href="#DejaVuSans-20" x="68.505859"/>
      <use xlink:href="#DejaVuSans-43" x="100.292969"/>
      <use xlink:href="#DejaVuSans-6f" x="170.117188"/>
      <use xlink:href="#DejaVuSans-6f" x="231.298828"/>
      <use xlink:href="#DejaVuSans-72" x="292.480469"/>
      <use xlink:href="#DejaVuSans-64" x="331.84375"/>
      <use xlink:href="#DejaVuSans-69" x="395.320312"/>
      <use xlink:href="#DejaVuSans-6e" x="423.103516"/>
      <use xlink:href="#DejaVuSans-61" x="486.482422"/>
      <use xlink:href="#DejaVuSans-74" x="547.761719"/>
      <use xlink:href="#DejaVuSans-65" x="586.970703"/>
     </g>
    </g>
   </g>
   <g id="matplotlib.axis_2">
    <g id="ytick_1">
     <g id="line2d_17">
      <path d="M 54 384.48 
L 388.8 384.48 
" clip-path="url(#pe110cd64be)" style="fill: none; stroke: #b0b0b0; stroke-width: 0.8; stroke-linecap: square"/>
     </g>
     <g id="line2d_18">
      <defs>
       <path id="m763a9811a5" d="M 0 0 
L -3.5 0 
" style="stroke: #000000; stroke-width: 0.8"/>
      </defs>
      <g>
       <use xlink:href="#m763a9811a5" x="54" y="384.48" style="stroke: #000000; stroke-width: 0.8"/>
      </g>
     </g>
     <g id="text_10">
      <!-- 0 -->
      <g transform="translate(40.6375 388.279219) scale(0.1 -0.1)">
       <use xlink:href="#DejaVuSans-30"/>
      </g>
     </g>
    </g>
    <g id="ytick_2">
     <g id="line2d_19">
      <path d="M 54 340.128 
L 388.8 340.128 
" clip-path="url(#pe110cd64be)" style="fill: none; stroke: #b0b0b0; stroke-width: 0.8; stroke-linecap: square"/>
     </g>
     <g id="line2d_20">
      <g>
       <use xlink:href="#m763a9811a5" x="54" y="340.128" style="stroke: #000000; stroke-width: 0.8"/>
      </g>
     </g>
     <g id="text_11">
      <!-- 10 -->
      <g transform="translate(34.275 343.927219) scale(0.1 -0.1)">
       <use xlink:href="#DejaVuSans-31"/>
       <use xlink:href="#DejaVuSans-30" x="63.623047"/>
      </g>
     </g>
    </g>
    <g id="ytick_3">
     <g id="line2d_21">
      <path d="M 54 295.776 
L 388.8 295.776 
" clip-path="url(#pe110cd64be)" style="fill: none; stroke: #b0b0b0; stroke-width: 0.8; stroke-linecap: square"/>
     </g>
     <g id="line2d_22">
      <g>
       <use xlink:href="#m763a9811a5" x="54" y="295.776" style="stroke: #000000; stroke-width: 0.8"/>
      </g>
     </g>
     <g id="text_12">
      <!-- 20 -->
      <g transform="translate(34.275 299.575219) scale(0.1 -0.1)">
       <use xlink:href="#DejaVuSans-32"/>
       <use xlink:href="#DejaVuSans-30" x="63.623047"/>
      </g>
     </g>
    </g>
    <g id="ytick_4">
     <g id="line2d_23">
      <path d="M 54 251.424 
L 388.8 251.424 
" clip-path="url(#pe110cd64be)" style="fill: none; stroke: #b0b0b0; stroke-width: 0.8; stroke-linecap: square"/>
     </g>
     <g id="line2d_24">
      <g>
       <use xlink:href="#m763a9811a5" x="54" y="251.424" style="stroke: #000000; stroke-width: 0.8"/>
      </g>
     </g>
     <g id="text_13">
      <!-- 30 -->
      <g transform="translate(34.275 255.223219) scale(0.1 -0.1)">
       <use xlink:href="#DejaVuSans-33"/>
       <use xlink:href="#DejaVuSans-30" x="63.623047"/>
      </g>
     </g>
    </g>
    <g id="ytick_5">
     <g id="line2d_25">
      <path d="M 54 207.072 
L 388.8 207.072 
" clip-path="url(#pe110cd64be)" style="fill: none; stroke: #b0b0b0; stroke-width: 0.8; stroke-linecap: square"/>
     </g>
     <g id="line2d_26">
      <g>
       <use xlink:href="#m763a9811a5" x="54" y="207.072" style="stroke: #000000; stroke-width: 0.8"/>
      </g>
     </g>
     <g id="text_14">
      <!-- 40 -->
      <g transform="translate(34.275 210.871219) scale(0.1 -0.1)">
       <use xlink:href="#DejaVuSans-34"/>
       <use xlink:href="#DejaVuSans-30" x="63.623047"/>
      </g>
     </g>
    </g>
    <g id="ytick_6">
     <g id="line2d_27">
      <path d="M 54 162.72 
L 388.8 162.72 
" clip-path="url(#pe110cd64be)" style="fill: none; stroke: #b0b0b0; stroke-width: 0.8; stroke-linecap: square"/>
     </g>
     <g id="line2d_28">
      <g>
       <use xlink:href="#m763a9811a5" x="54" y="162.72" style="stroke: #000000; stroke-width: 0.8"/>
      </g>
     </g>
     <g id="text_15">
      <!-- 50 -->
      <g transform="translate(34.275 166.519219) scale(0.1 -0.1)">
       <use xlink:href="#DejaVuSans-35"/>
       <use xlink:href="#DejaVuSans-30" x="63.623047"/>
      </g>
     </g>
    </g>
    <g id="ytick_7">
     <g id="line2d_29">
      <path d="M 54 118.368 
L 388.8 118.368 
" clip-path="url(#pe110cd64be)" style="fill: none; stroke: #b0b0b0; stroke-width: 0.8; stroke-linecap: square"/>
     </g>
     <g id="line2d_30">
      <g>
       <use xlink:href="#m763a9811a5" x="54" y="118.368" style="stroke: #000000; stroke-width: 0.8"/>
      </g>
     </g>
     <g id="text_16">
      <!-- 60 -->
      <g transform="translate(34.275 122.167219) scale(0.1 -0.1)">
       <use xlink:href="#DejaVuSans-36"/>
       <use xlink:href="#DejaVuSans-30" x="63.623047"/>
      </g>
     </g>
    </g>
    <g id="ytick_8">
     <g id="line2d_31">
      <path d="M 54 74.016 
L 388.8 74.016 
" clip-path="url(#pe110cd64be)" style="fill: none; stroke: #b0b0b0; stroke-width: 0.8; stroke-linecap: square"/>
     </g>
     <g id="line2d_32">
      <g>
       <use xlink:href="#m763a9811a5" x="54" y="74.016" style="stroke: #000000; stroke-width: 0.8"/>
      </g>
     </g>
     <g id="text_17">
      <!-- 70 -->
      <g transform="translate(34.275 77.815219) scale(0.1 -0.1)">
       <use xlink:href="#DejaVuSans-37"/>
       <use xlink:href="#DejaVuSans-30" x="63.623047"/>
      </g>
     </g>
    </g>
    <g id="text_18">
     <!-- Y Coordinate -->
     <g transform="translate(28.195312 250.213906) rotate(-90) scale(0.1 -0.1)">
      <defs>
       <path id="DejaVuSans-59" d="M -13 4666 
L 666 4666 
L 1959 2747 
L 3244 4666 
L 3922 4666 
L 2272 2222 
L 2272 0 
L 1638 0 
L 1638 2222 
L -13 4666 
z
" transform="scale(0.015625)"/>
      </defs>
      <use xlink:href="#DejaVuSans-59"/>
      <use xlink:href="#DejaVuSans-20" x="61.083984"/>
      <use xlink:href="#DejaVuSans-43" x="92.871094"/>
      <use xlink:href="#DejaVuSans-6f" x="162.695312"/>
      <use xlink:href="#DejaVuSans-6f" x="223.876953"/>
      <use xlink:href="#DejaVuSans-72" x="285.058594"/>
      <use xlink:href="#DejaVuSans-64" x="324.421875"/>
      <use xlink:href="#DejaVuSans-69" x="387.898438"/>
      <use xlink:href="#DejaVuSans-6e" x="415.681641"/>
      <use xlink:href="#DejaVuSans-61" x="479.060547"/>
      <use xlink:href="#DejaVuSans-74" x="540.339844"/>
      <use xlink:href="#DejaVuSans-65" x="579.548828"/>
     </g>
    </g>
   </g>
   <g id="line2d_33">
    <defs>
     <path id="m17b9c48bbb" d="M 0 2.5 
C 0.663008 2.5 1.29895 2.236584 1.767767 1.767767 
C 2.236584 1.29895 2.5 0.663008 2.5 0 
C 2.5 -0.663008 2.236584 -1.29895 1.767767 -1.767767 
C 1.29895 -2.236584 0.663008 -2.5 0 -2.5 
C -0.663008 -2.5 -1.29895 -2.236584 -1.767767 -1.767767 
C -2.236584 -1.29895 -2.5 -0.663008 -2.5 0 
C -2.5 0.663008 -2.236584 1.29895 -1.767767 1.767767 
C -1.29895 2.236584 -0.663008 2.5 0 2.5 
z
" style="stroke: #3075ff"/>
    </defs>
    <g clip-path="url(#pe110cd64be)">
     <use xlink:href="#m17b9c48bbb" x="210.24" y="229.248" style="fill: #3075ff; stroke: #3075ff"/>
    </g>
   </g>
   <g id="line2d_34">
    <g clip-path="url(#pe110cd64be)">
     <use xlink:href="#m17b9c48bbb" x="165.6" y="251.424" style="fill: #3075ff; stroke: #3075ff"/>
    </g>
   </g>
   <g id="line2d_35">
    <g clip-path="url(#pe110cd64be)">
     <use xlink:href="#m17b9c48bbb" x="120.96" y="251.424" style="fill: #3075ff; stroke: #3075ff"/>
    </g>
   </g>
   <g id="line2d_36">
    <g clip-path="url(#pe110cd64be)">
     <use xlink:href="#m17b9c48bbb" x="76.32" y="251.424" style="fill: #3075ff; stroke: #3075ff"/>
    </g>
   </g>
   <g id="line2d_37">
    <g clip-path="url(#pe110cd64be)">
     <use xlink:href="#m17b9c48bbb" x="98.64" y="295.776" style="fill: #3075ff; stroke: #3075ff"/>
    </g>
   </g>
   <g id="line2d_38">
    <g clip-path="url(#pe110cd64be)">
     <use xlink:href="#m17b9c48bbb" x="120.96" y="340.128" style="fill: #3075ff; stroke: #3075ff"/>
    </g>
   </g>
   <g id="line2d_39">
    <g clip-path="url(#pe110cd64be)">
     <use xlink:href="#m17b9c48bbb" x="187.92" y="362.304" style="fill: #3075ff; stroke: #3075ff"/>
    </g>
   </g>
   <g id="line2d_40">
    <g clip-path="url(#pe110cd64be)">
     <use xlink:href="#m17b9c48bbb" x="254.88" y="340.128" style="fill: #3075ff; stroke: #3075ff"/>
    </g>
   </g>
   <g id="line2d_41">
    <g clip-path="url(#pe110cd64be)">
     <use xlink:href="#m17b9c48bbb" x="299.52" y="362.304" style="fill: #3075ff; stroke: #3075ff"/>
    </g>
   </g>
   <g id="line2d_42">
    <g clip-path="url(#pe110cd64be)">
     <use xlink:href="#m17b9c48bbb" x="344.16" y="295.776" style="fill: #3075ff; stroke: #3075ff"/>
    </g>
   </g>
   <g id="line2d_43">
    <g clip-path="url(#pe110cd64be)">
     <use xlink:href="#m17b9c48bbb" x="299.52" y="295.776" style="fill: #3075ff; stroke: #3075ff"/>
    </g>
   </g>
   <g id="line2d_44">
    <g clip-path="url(#pe110cd64be)">
     <use xlink:href="#m17b9c48bbb" x="254.88" y="295.776" style="fill: #3075ff; stroke: #3075ff"/>
    </g>
   </g>
   <g id="line2d_45">
    <g clip-path="url(#pe110cd64be)">
     <use xlink:href="#m17b9c48bbb" x="210.24" y="309.0816" style="fill: #3075ff; stroke: #3075ff"/>
    </g>
   </g>
   <g id="line2d_46">
    <g clip-path="url(#pe110cd64be)">
     <use xlink:href="#m17b9c48bbb" x="187.92" y="273.6" style="fill: #3075ff; stroke: #3075ff"/>
    </g>
   </g>
   <g id="line2d_47">
    <defs>
     <path id="md86b2047d9" d="M 0 2.5 
C 0.663008 2.5 1.29895 2.236584 1.767767 1.767767 
C 2.236584 1.29895 2.5 0.663008 2.5 0 
C 2.5 -0.663008 2.236584 -1.29895 1.767767 -1.767767 
C 1.29895 -2.236584 0.663008 -2.5 0 -2.5 
C -0.663008 -2.5 -1.29895 -2.236584 -1.767767 -1.767767 
C -2.236584 -1.29895 -2.5 -0.663008 -2.5 0 
C -2.5 0.663008 -2.236584 1.29895 -1.767767 1.767767 
C -1.29895 2.236584 -0.663008 2.5 0 2.5 
z
" style="stroke: #ffa500"/>
    </defs>
    <g clip-path="url(#pe110cd64be)">
     <use xlink:href="#md86b2047d9" x="210.24" y="229.248" style="fill: #ffa500; stroke: #ffa500"/>
    </g>
   </g>
   <g id="line2d_48">
    <g clip-path="url(#pe110cd64be)">
     <use xlink:href="#md86b2047d9" x="254.88" y="251.424" style="fill: #ffa500; stroke: #ffa500"/>
    </g>
   </g>
   <g id="line2d_49">
    <g clip-path="url(#pe110cd64be)">
     <use xlink:href="#md86b2047d9" x="277.2" y="229.248" style="fill: #ffa500; stroke: #ffa500"/>
    </g>
   </g>
   <g id="line2d_50">
    <g clip-path="url(#pe110cd64be)">
     <use xlink:href="#md86b2047d9" x="344.16" y="229.248" style="fill: #ffa500; stroke: #ffa500"/>
    </g>
   </g>
   <g id="line2d_51">
    <g clip-path="url(#pe110cd64be)">
     <use xlink:href="#md86b2047d9" x="339.696" y="198.2016" style="fill: #ffa500; stroke: #ffa500"/>
    </g>
   </g>
   <g id="line2d_52">
    <g clip-path="url(#pe110cd64be)">
     <use xlink:href="#md86b2047d9" x="299.52" y="184.896" style="fill: #ffa500; stroke: #ffa500"/>
    </g>
   </g>
   <g id="line2d_53">
    <g clip-path="url(#pe110cd64be)">
     <use xlink:href="#md86b2047d9" x="299.52" y="118.368" style="fill: #ffa500; stroke: #ffa500"/>
    </g>
   </g>
   <g id="line2d_54">
    <g clip-path="url(#pe110cd64be)">
     <use xlink:href="#md86b2047d9" x="254.88" y="96.192" style="fill: #ffa500; stroke: #ffa500"/>
    </g>
   </g>
   <g id="line2d_55">
    <g clip-path="url(#pe110cd64be)">
     <use xlink:href="#md86b2047d9" x="232.56" y="118.368" style="fill: #ffa500; stroke: #ffa500"/>
    </g>
   </g>
   <g id="line2d_56">
    <g clip-path="url(#pe110cd64be)">
     <use xlink:href="#md86b2047d9" x="187.92" y="118.368" style="fill: #ffa500; stroke: #ffa500"/>
    </g>
   </g>
   <g id="line2d_57">
    <g clip-path="url(#pe110cd64be)">
     <use xlink:href="#md86b2047d9" x="143.28" y="96.192" style="fill: #ffa500; stroke: #ffa500"/>
    </g>
   </g>
   <g id="line2d_58">
    <g clip-path="url(#pe110cd64be)">
     <use xlink:href="#md86b2047d9" x="120.96" y="118.368" style="fill: #ffa500; stroke: #ffa500"/>
    </g>
   </g>
   <g id="line2d_59">
    <g clip-path="url(#pe110cd64be)">
     <use xlink:href="#md86b2047d9" x="143.28" y="162.72" style="fill: #ffa500; stroke: #ffa500"/>
    </g>
   </g>
   <g id="line2d_60">
    <g clip-path="url(#pe110cd64be)">
     <use xlink:href="#md86b2047d9" x="98.64" y="193.7664" style="fill: #ffa500; stroke: #ffa500"/>
    </g>
   </g>
   <g id="line2d_61">
    <g clip-path="url(#pe110cd64be)">
     <use xlink:href="#md86b2047d9" x="143.28" y="207.072" style="fill: #ffa500; stroke: #ffa500"/>
    </g>
   </g>
   <g id="line2d_62">
    <defs>
     <path id="m077ae6d066" d="M 0 2.5 
C 0.663008 2.5 1.29895 2.236584 1.767767 1.767767 
C 2.236584 1.29895 2.5 0.663008 2.5 0 
C 2.5 -0.663008 2.236584 -1.29895 1.767767 -1.767767 
C 1.29895 -2.236584 0.663008 -2.5 0 -2.5 
C -0.663008 -2.5 -1.29895 -2.236584 -1.767767 -1.767767 
C -2.236584 -1.29895 -2.5 -0.663008 -2.5 0 
C -2.5 0.663008 -2.236584 1.29895 -1.767767 1.767767 
C -1.29895 2.236584 -0.663008 2.5 0 2.5 
z
" style="stroke: #228b22"/>
    </defs>
    <g clip-path="url(#pe110cd64be)">
     <use xlink:href="#m077ae6d066" x="210.24" y="229.248" style="fill: #228b22; stroke: #228b22"/>
    </g>
   </g>
   <g id="line2d_63">
    <g clip-path="url(#pe110cd64be)">
     <use xlink:href="#m077ae6d066" x="210.24" y="207.072" style="fill: #228b22; stroke: #228b22"/>
    </g>
   </g>
   <g id="line2d_64">
    <g clip-path="url(#pe110cd64be)">
     <use xlink:href="#m077ae6d066" x="237.024" y="167.1552" style="fill: #228b22; stroke: #228b22"/>
    </g>
   </g>
   <g id="line2d_65">
    <g clip-path="url(#pe110cd64be)">
     <use xlink:href="#m077ae6d066" x="237.024" y="220.3776" style="fill: #228b22; stroke: #228b22"/>
    </g>
   </g>
   <g id="line2d_66">
    <defs>
     <path id="m6c9f4d4d90" d="M 0 5 
C 1.326016 5 2.597899 4.473168 3.535534 3.535534 
C 4.473168 2.597899 5 1.326016 5 0 
C 5 -1.326016 4.473168 -2.597899 3.535534 -3.535534 
C 2.597899 -4.473168 1.326016 -5 0 -5 
C -1.326016 -5 -2.597899 -4.473168 -3.535534 -3.535534 
C -4.473168 -2.597899 -5 -1.326016 -5 0 
C -5 1.326016 -4.473168 2.597899 -3.535534 3.535534 
C -2.597899 4.473168 -1.326016 5 0 5 
z
" style="stroke: #ff0000"/>
    </defs>
    <g clip-path="url(#pe110cd64be)">
     <use xlink:href="#m6c9f4d4d90" x="210.24" y="229.248" style="fill: #ff0000; stroke: #ff0000"/>
    </g>
   </g>
   <g id="patch_36">
    <path d="M 54 384.48 
L 54 51.84 
" style="fill: none; stroke: #000000; stroke-width: 0.8; stroke-linejoin: miter; stroke-linecap: square"/>
   </g>
   <g id="patch_37">
    <path d="M 388.8 384.48 
L 388.8 51.84 
" style="fill: none; stroke: #000000; stroke-width: 0.8; stroke-linejoin: miter; stroke-linecap: square"/>
   </g>
   <g id="patch_38">
    <path d="M 54 384.48 
L 388.8 384.48 
" style="fill: none; stroke: #000000; stroke-width: 0.8; stroke-linejoin: miter; stroke-linecap: square"/>
   </g>
   <g id="patch_39">
    <path d="M 54 51.84 
L 388.8 51.84 
" style="fill: none; stroke: #000000; stroke-width: 0.8; stroke-linejoin: miter; stroke-linecap: square"/>
   </g>
  </g>
 </g>
 <defs>
  <clipPath id="pe110cd64be">
   <rect x="54" y="51.84" width="334.8" height="332.64"/>
  </clipPath>
 </defs>
</svg>
